<svg width="80" height="80" viewBox="0 0 80 80" fill="none" xmlns="http://www.w3.org/2000/svg">
<rect width="80" height="80" rx="15" fill="#D51313"/>
<path d="M18.9642 44.6163L31.6195 46.362L25.4438 55.3477C25.3036 55.5517 25.2723 55.8114 25.3601 56.0428C25.4475 56.2744 25.6427 56.4482 25.8828 56.5083L28.905 57.2639C29.1474 57.3247 29.4042 57.262 29.5908 57.096L40.3521 47.5304L46.3699 48.0771C47.1413 48.1476 48.1079 48.1808 49.1058 48.1808C50.5335 48.1885 51.9608 48.1144 53.38 47.9587L55.377 47.7093C56.7774 47.5344 58.1464 47.1633 59.4439 46.607L60.8794 45.992C61.5213 45.7168 61.9537 45.1036 61.9965 44.4064C62.0396 43.7091 61.6858 43.0473 61.0827 42.6957L56.7139 40.1472C54.7498 39.0025 52.5171 38.3989 50.2435 38.3982H44.5408L35.7923 28.464C35.6425 28.3021 35.4322 28.2091 35.2113 28.208L32.0972 28.2641C31.8423 28.2681 31.607 28.3998 31.4708 28.6153C31.3343 28.8303 31.3155 29.0996 31.421 29.3317L35.478 38.3982H25.0222L21.4577 31.2604C21.3289 31.0029 21.0652 30.8409 20.7774 30.8428H17.7552C17.5332 30.8428 17.3225 30.9405 17.179 31.1099C17.0355 31.2796 16.9739 31.5039 17.0104 31.7226L18.4292 40.2384L18.2584 40.3239C17.3664 40.7703 16.8684 41.7454 17.0303 42.73C17.1923 43.7147 17.9759 44.4791 18.9642 44.6163V44.6163ZM28.8843 55.7L27.3054 55.3049L34.749 44.4779L40.8826 45.0354L39.8375 45.9639L39.7342 45.9536L39.7242 46.0628L28.8843 55.7ZM33.2667 29.753L34.8896 29.7235L42.5273 38.3982H37.1337L33.2667 29.753ZM20.0115 40.5401L18.6476 32.3539H20.31L23.8781 39.4913C24.0065 39.7477 24.2685 39.9097 24.5551 39.9093H50.2435C52.1884 39.9111 54.0998 40.4132 55.7946 41.3672L56.0296 41.838L55.3541 42.1759H52.5101V43.687H55.5323C55.6493 43.6881 55.7651 43.6623 55.8702 43.6114L57.3813 42.8558C57.5337 42.7758 57.6536 42.6459 57.7211 42.4876L60.3212 44.005C60.4326 44.0688 60.4983 44.1902 60.4902 44.3186C60.4824 44.447 60.4024 44.5595 60.284 44.6093L58.8485 45.2243C57.6812 45.7245 56.4494 46.0584 55.1896 46.2163L53.1926 46.4657C50.9718 46.7025 48.7343 46.7401 46.5068 46.5782L41.8979 46.1598L43.1876 45.0136C43.4193 44.8148 43.5089 44.4964 43.4145 44.2064C43.3201 43.9161 43.0603 43.7113 42.7564 43.687L34.4454 42.9314C34.1731 42.9067 33.9094 43.0311 33.7548 43.2561L32.579 44.9712L19.1719 43.1192C18.8399 43.0731 18.5761 42.816 18.5218 42.4847C18.4672 42.1538 18.6347 41.8258 18.9347 41.6757L19.6042 41.3407C19.9012 41.1924 20.0665 40.8674 20.0115 40.5401V40.5401Z" fill="white"/>
<path d="M26.8218 40.6649H28.3329V42.1759H26.8218V40.6649Z" fill="white"/>
<path d="M29.844 40.6649H31.3551V42.1759H29.844V40.6649Z" fill="white"/>
<path d="M32.866 40.6649H34.377V42.1759H32.866V40.6649Z" fill="white"/>
<path d="M35.8882 40.6649H37.3993V42.1759H35.8882V40.6649Z" fill="white"/>
<path d="M38.9102 40.6649H40.4212V42.1759H38.9102V40.6649Z" fill="white"/>
<path d="M41.9324 40.6649H43.4435V42.1759H41.9324V40.6649Z" fill="white"/>
<path d="M44.9546 40.6649H46.4657V42.1759H44.9546V40.6649Z" fill="white"/>
<path d="M58.4692 24.8398C58.1752 23.6338 57.1736 22.73 55.9436 22.5614C54.7137 22.3928 53.5058 22.9934 52.8979 24.0761C52.1254 23.9467 51.3403 24.2226 50.8187 24.8066C49.4784 24.707 48.2764 25.6289 48.0252 26.9496C47.774 28.27 48.5531 29.5686 49.8366 29.9685C49.958 30.046 50.0993 30.0873 50.2435 30.0873H59.31C59.4439 30.0873 59.5749 30.0493 59.6878 29.9777C60.9473 29.6033 61.7412 28.3611 61.5515 27.0611C61.3616 25.761 60.2463 24.797 58.9322 24.7985C58.7769 24.7985 58.622 24.8121 58.4692 24.8398ZM60.0655 27.4429C60.0659 27.9815 59.6867 28.4456 59.1591 28.5533C59.1303 28.5592 59.1023 28.567 59.0743 28.5762H50.48C50.4519 28.567 50.4232 28.5592 50.394 28.5533C49.8233 28.4375 49.4334 27.9077 49.492 27.3285C49.5507 26.7489 50.0391 26.3085 50.6213 26.3096C50.7312 26.3118 50.84 26.331 50.9441 26.3653C51.2968 26.4712 51.6742 26.3074 51.838 25.9775C51.9346 25.7879 52.1065 25.6474 52.312 25.5898C52.5171 25.5326 52.737 25.5636 52.9182 25.6754C53.1251 25.8093 53.3841 25.834 53.6125 25.7418C53.8408 25.6496 54.0098 25.4515 54.0651 25.2117C54.2665 24.4307 55.0472 23.9467 55.8363 24.1134C56.6254 24.2802 57.1434 25.0383 57.0117 25.834C56.953 26.145 57.0943 26.4593 57.3654 26.622C57.637 26.7851 57.9808 26.7615 58.2276 26.5634C58.5648 26.2852 59.033 26.228 59.4273 26.4166C59.8217 26.6051 60.0707 27.0057 60.0655 27.4429V27.4429Z" fill="white"/>
<path d="M43.8212 57.2867C43.6658 57.2867 43.5109 57.3004 43.3582 57.328C43.0641 56.1221 42.0625 55.2182 40.8326 55.0496C39.6026 54.881 38.3948 55.4816 37.7868 56.5644C37.0143 56.4349 36.2292 56.7108 35.7076 57.2948C34.3673 57.1952 33.1654 58.1172 32.9141 59.4379C32.6629 60.7582 33.4421 62.0568 34.7255 62.4567C34.8469 62.5342 34.9882 62.5755 35.1324 62.5755H44.1989C44.3328 62.5755 44.4638 62.5375 44.5767 62.4659C45.8362 62.0915 46.6301 60.8493 46.4405 59.5493C46.2505 58.2492 45.1352 57.2853 43.8212 57.2867V57.2867ZM44.048 61.0416C44.0193 61.0475 43.9912 61.0552 43.9632 61.0644H35.3689C35.3409 61.0552 35.3121 61.0475 35.2829 61.0416C34.7122 60.9257 34.3223 60.396 34.3809 59.8168C34.4396 59.2372 34.928 58.7967 35.5102 58.7978C35.6201 58.8 35.729 58.8192 35.833 58.8535C36.1857 58.9594 36.5631 58.7956 36.7269 58.4658C36.8235 58.2762 36.9955 58.1352 37.2006 58.0777C37.4061 58.0205 37.6259 58.0515 37.8071 58.1636C38.014 58.2976 38.273 58.3223 38.5014 58.23C38.7297 58.1378 38.8987 57.9397 38.954 57.6999C39.1555 56.9189 39.9361 56.4349 40.7252 56.6016C41.5143 56.7684 42.0323 57.5265 41.9006 58.3223C41.8419 58.6333 41.9832 58.9476 42.2544 59.1103C42.5259 59.2733 42.8697 59.2497 43.1165 59.0516C43.4821 58.7524 43.9953 58.7115 44.4037 58.9491C44.8124 59.1866 45.0305 59.6526 44.9511 60.1185C44.8722 60.5845 44.5121 60.9523 44.048 61.0416V61.0416Z" fill="white"/>
<path d="M28.2476 20.3065C27.9535 19.1005 26.9519 18.1967 25.722 18.0281C24.492 17.8595 23.2842 18.4601 22.6762 19.5429C21.9037 19.413 21.1186 19.689 20.597 20.2733C19.2567 20.1737 18.0548 21.0956 17.8035 22.4164C17.5523 23.7367 18.3315 25.0353 19.6149 25.4352C19.7363 25.5127 19.8776 25.554 20.0218 25.554H29.0883C29.2222 25.554 29.3532 25.516 29.4661 25.4444C30.7256 25.07 31.5195 23.8278 31.3299 22.5278C31.1399 21.2277 30.0246 20.2637 28.7106 20.2652C28.5552 20.2652 28.4003 20.2789 28.2476 20.3065V20.3065ZM29.8439 22.9096C29.8442 23.4482 29.465 23.9123 28.9374 24.02C28.9087 24.026 28.8806 24.0337 28.8526 24.0429H20.2583C20.2303 24.0337 20.2019 24.026 20.1731 24.02C19.6024 23.9042 19.2124 23.3748 19.2711 22.7956C19.3294 22.2164 19.8175 21.7756 20.3996 21.7763C20.5095 21.7785 20.6184 21.7977 20.7224 21.832C21.0751 21.9379 21.4525 21.7741 21.6163 21.4443C21.7129 21.2547 21.8849 21.1137 22.09 21.0562C22.2955 20.999 22.5153 21.03 22.6965 21.1421C22.9034 21.276 23.1624 21.3008 23.3908 21.2085C23.6191 21.1163 23.7881 20.9182 23.8434 20.6784C24.0449 19.8974 24.8255 19.4134 25.6146 19.5801C26.4037 19.7469 26.9217 20.505 26.79 21.3008C26.7313 21.6118 26.8726 21.9261 27.1438 22.0888C27.4153 22.2518 27.7591 22.2282 28.0059 22.0301C28.3431 21.752 28.8113 21.6948 29.2056 21.8833C29.6 22.0718 29.849 22.4724 29.8439 22.9096Z" fill="white"/>
</svg>
