<svg width="80" height="80" viewBox="0 0 80 80" fill="none" xmlns="http://www.w3.org/2000/svg">
<rect width="80" height="80" rx="15" fill="#2F80ED"/>
<path d="M54.4674 57.1935L52.7872 52.1521C52.2 50.392 50.7019 49.0928 48.8758 48.7604L44.0253 47.8778V47.5018C44.8694 47.0119 45.6039 46.3565 46.1889 45.5806H47.6543C48.8548 45.5806 49.8317 44.6037 49.8317 43.4032V34.6935C49.8317 29.491 45.5988 25.2581 40.3962 25.2581C35.1936 25.2581 30.9607 29.491 30.9607 34.6935V39.7742C30.9607 41.1735 31.9558 42.3443 33.2753 42.6172C33.6825 44.7031 34.9861 46.4683 36.7672 47.5018V47.8778L31.9159 48.7604C30.0905 49.0928 28.5917 50.392 28.0052 52.1521L27.7149 53.0238L25.2428 50.5517C24.9598 50.2686 24.9598 49.8077 25.2428 49.5247L28.1098 46.6585L22.7286 41.2773L19.4886 44.5173C18.5291 45.4768 18.0007 46.7528 18.0007 48.1101C18.0007 49.4673 18.5291 50.7426 19.4886 51.7021L29.2979 61.5114C30.2574 62.4709 31.5334 63 32.8907 63C34.2479 63 35.5232 62.4709 36.4602 61.5331L39.9956 58.2939L38.8931 57.1935H54.4674ZM48.3801 43.4032C48.3801 43.8039 48.0542 44.129 47.6543 44.129H47.0439C47.2544 43.6493 47.414 43.1434 47.5171 42.6172C47.8277 42.5526 48.1137 42.4292 48.3801 42.2739V43.4032ZM47.6543 41.024V38.5243C48.0861 38.7762 48.3801 39.2393 48.3801 39.7742C48.3801 40.3091 48.0861 40.7722 47.6543 41.024ZM33.1382 41.024C32.7063 40.7722 32.4123 40.3091 32.4123 39.7742C32.4123 39.2393 32.7063 38.7762 33.1382 38.5243V41.024ZM33.1382 36.1452V36.974C32.8798 37.0415 32.6373 37.1431 32.4123 37.2745V34.6935C32.4123 30.2915 35.9942 26.7097 40.3962 26.7097C44.7982 26.7097 48.3801 30.2915 48.3801 34.6935V37.2745C48.1551 37.1431 47.9127 37.0408 47.6543 36.974V36.1452H46.9285C44.7823 36.1452 42.7645 35.309 41.2461 33.7914L40.3962 32.9414L39.5463 33.7914C38.0279 35.309 36.0102 36.1452 33.864 36.1452H33.1382ZM34.5898 41.2258V37.5692C36.7694 37.4052 38.8016 36.5059 40.3962 34.9897C41.9908 36.5059 44.0231 37.4059 46.2027 37.5692V41.2258C46.2027 42.284 45.9138 43.274 45.4173 44.129H40.3962V45.5806H44.2241C43.2007 46.4814 41.8631 47.0323 40.3962 47.0323C37.1947 47.0323 34.5898 44.4273 34.5898 41.2258ZM42.5736 48.1493V48.1834L40.3962 50.3608L38.2188 48.1834V48.1493C38.9069 48.3656 39.6377 48.4839 40.3962 48.4839C41.1547 48.4839 41.8856 48.3656 42.5736 48.1493ZM29.3814 52.6108C29.8002 51.3537 30.8707 50.4254 32.175 50.1873L37.2484 49.2656L40.3962 52.4134L43.5433 49.2663L48.616 50.1881C49.9203 50.4261 50.9908 51.3537 51.4096 52.6115L52.454 55.7419H37.4415L34.6144 52.9149L31.4732 55.7564C31.1995 56.0315 30.7212 56.0315 30.4469 55.7564L28.8617 54.1713L29.3814 52.6108ZM22.7279 43.3299L26.0565 46.6585L25.2682 47.4467L21.9397 44.1181L22.7279 43.3299ZM35.4549 60.4865C34.7698 61.1702 33.8582 61.5484 32.8892 61.5484C31.9202 61.5484 31.0086 61.1702 30.3227 60.4851L20.5135 50.6765C19.8283 49.9914 19.4509 49.0798 19.4509 48.1108C19.4509 47.1411 19.8283 46.2295 20.5135 45.5443L20.9127 45.1452L24.2412 48.4737L24.2151 48.4998C23.3666 49.349 23.3666 50.7302 24.2151 51.5794L29.4198 56.7842C29.8314 57.195 30.3779 57.4222 30.96 57.4222C31.5421 57.4222 32.0886 57.1957 32.4733 56.8096L32.5277 56.761L35.8715 60.1048L35.4549 60.4865ZM36.9428 59.122L33.6063 55.7855L34.5651 54.9189L37.8958 58.2496L36.9428 59.122Z" fill="white"/>
<path d="M60.7188 18H50.5575C49.3571 18 48.3801 18.9769 48.3801 20.1774V25.9839C48.3801 27.1844 49.3571 28.1613 50.5575 28.1613H52.4962L51.7457 32.5386L58.7497 28.1613H60.7188C61.9193 28.1613 62.8963 27.1844 62.8963 25.9839V20.1774C62.8963 18.9769 61.9193 18 60.7188 18ZM61.4446 25.9839C61.4446 26.3838 61.1188 26.7097 60.7188 26.7097H58.3331L53.7235 29.5904L54.2178 26.7097H50.5575C50.1576 26.7097 49.8317 26.3838 49.8317 25.9839V20.1774C49.8317 19.7775 50.1576 19.4516 50.5575 19.4516H60.7188C61.1188 19.4516 61.4446 19.7775 61.4446 20.1774V25.9839Z" fill="white"/>
<path d="M59.9931 20.9032H51.2834V22.3548H59.9931V20.9032Z" fill="white"/>
<path d="M57.0899 23.8065H51.2834V25.2581H57.0899V23.8065Z" fill="white"/>
<path d="M59.9931 23.8065H58.5415V25.2581H59.9931V23.8065Z" fill="white"/>
<path d="M40.3962 20.1774C30.9128 20.1774 22.7439 26.7373 20.6202 35.8875L19.2448 33.5947L18 34.3415L20.5512 38.5926L24.8023 36.0414L24.0554 34.7966L22.0885 35.9768C24.1454 27.6061 31.6727 21.629 40.3962 21.629C42.3029 21.629 44.1842 21.9121 45.9878 22.471L46.4175 21.0847C44.4745 20.4823 42.4488 20.1774 40.3962 20.1774Z" fill="white"/>
<path d="M62.5436 34.0708L58.2925 31.5196L55.7421 35.7714L56.9868 36.5182L58.257 34.401C58.9254 36.3571 59.2673 38.4031 59.2673 40.5C59.2673 44.8164 57.7721 49.0362 55.0583 52.3814L56.1855 53.296C59.1091 49.6931 60.7189 45.1481 60.7189 40.5C60.7189 38.2798 60.3611 36.1118 59.6636 34.036L61.7967 35.3156L62.5436 34.0708Z" fill="white"/>
</svg>
