<svg width="80" height="80" viewBox="0 0 80 80" fill="none" xmlns="http://www.w3.org/2000/svg">
<rect width="80" height="80" rx="15" fill="#F95F09"/>
<path d="M62.1211 35.1494H54.9141V33.289C54.9141 32.8036 54.5205 32.4101 54.0352 32.4101H35.0508C34.5654 32.4101 34.1719 32.8036 34.1719 33.289C34.1719 33.7745 34.5654 34.1679 35.0508 34.1679H53.1562V40.9062C53.1562 46.8254 49.996 52.3268 44.8929 55.3202H28.0211C22.9181 52.3269 19.7578 46.8254 19.7578 40.9062V34.168H25.6465C26.1318 34.168 26.5254 33.7745 26.5254 33.2891C26.5254 32.8037 26.1318 32.4102 25.6465 32.4102H18.8789C18.3936 32.4102 18 32.8037 18 33.2891V40.9062C18 44.2285 18.893 47.4861 20.5824 50.3266C21.7217 52.2424 23.2 53.9341 24.9312 55.3203H18.8789C18.3936 55.3203 18 55.7138 18 56.1992C18 59.3978 20.6022 62 23.8008 62H51.2227C54.4213 62 57.0234 59.3978 57.0234 56.1992C57.0234 55.7138 56.6299 55.3203 56.1445 55.3203H47.9828C49.5762 54.0445 50.9546 52.5093 52.0523 50.7793H54.5332C59.2018 50.7793 63 46.9811 63 42.3125V36.0283C63 35.5429 62.6065 35.1494 62.1211 35.1494ZM55.1694 57.0781C54.767 58.8862 53.1502 60.2422 51.2227 60.2422H23.8008C21.8733 60.2422 20.2565 58.8862 19.8541 57.0781H27.7857H45.1284H55.1694ZM54.9141 40.9062V40.4228H57.7266V42.3125C57.7266 44.0733 56.294 45.5058 54.5332 45.5058H54.3336C54.7173 44.0112 54.9141 42.4659 54.9141 40.9062ZM61.2422 42.3125C61.2422 46.0118 58.2325 49.0214 54.5332 49.0214H53.0373C53.318 48.4483 53.5686 47.8616 53.7877 47.2636H54.5332C57.2634 47.2636 59.4844 45.0426 59.4844 42.3125V39.5439C59.4844 39.0585 59.0908 38.665 58.6055 38.665H54.9141V36.9072H61.2422V42.3125Z" fill="white"/>
<path d="M37.2961 21.8641L36.8388 21.2899C36.1675 20.4472 36.1666 19.2692 36.8365 18.4253C37.1383 18.0451 37.0747 17.4923 36.6944 17.1905C36.3141 16.8886 35.7614 16.9524 35.4596 17.3326C34.2782 18.8211 34.2799 20.8987 35.4639 22.3851L35.9212 22.9593C36.7984 24.0606 36.7997 25.6 35.9243 26.7029L35.4557 27.2934C35.1539 27.6736 35.2175 28.2264 35.5977 28.5282C35.7594 28.6564 35.9521 28.7187 36.1435 28.7187C36.4025 28.7187 36.659 28.6048 36.8326 28.3861L37.3012 27.7957C38.6882 26.0483 38.6861 23.6091 37.2961 21.8641Z" fill="white"/>
<path d="M42.168 23.8403L41.7107 23.2662C41.0394 22.4234 41.0384 21.2454 41.7083 20.4015C42.0101 20.0212 41.9465 19.4684 41.5663 19.1667C41.186 18.8648 40.6332 18.9285 40.3314 19.3087C39.15 20.7972 39.1517 22.8749 40.3357 24.3614L40.793 24.9356C41.6702 26.0369 41.6715 27.5764 40.7961 28.6793L40.3275 29.2696C40.0257 29.6498 40.0894 30.2027 40.4696 30.5044C40.6312 30.6326 40.8239 30.6948 41.0154 30.6948C41.2743 30.6948 41.5309 30.5809 41.7044 30.3623L42.1729 29.7719C43.5599 28.0246 43.5579 25.5854 42.168 23.8403Z" fill="white"/>
<path d="M32.4246 23.8404L31.9673 23.2662C31.296 22.4236 31.295 21.2455 31.9648 20.4015C32.2666 20.0213 32.203 19.4685 31.8228 19.1667C31.4425 18.8649 30.8897 18.9287 30.5879 19.3087C29.4066 20.7972 29.4083 22.875 30.5923 24.3614L31.0496 24.9356C31.9268 26.0369 31.9281 27.5764 31.0528 28.6792L30.5841 29.2695C30.2823 29.6497 30.3459 30.2026 30.7261 30.5044C30.8877 30.6326 31.0804 30.6949 31.2719 30.6949C31.5308 30.6949 31.7874 30.581 31.9609 30.3624L32.4296 29.772C33.8165 28.0246 33.8145 25.5855 32.4246 23.8404Z" fill="white"/>
<path d="M31.2083 32.6674C31.0448 32.5039 30.8181 32.4099 30.5869 32.4099C30.3558 32.4099 30.129 32.5039 29.9655 32.6674C29.8021 32.8317 29.708 33.0576 29.708 33.2888C29.708 33.5199 29.8021 33.7467 29.9655 33.911C30.129 34.0745 30.3558 34.1677 30.5869 34.1677C30.8181 34.1677 31.0448 34.0745 31.2083 33.911C31.3726 33.7467 31.4658 33.5208 31.4658 33.2888C31.4658 33.0576 31.3726 32.8308 31.2083 32.6674Z" fill="white"/>
<path d="M49.8164 40.0273C49.3311 40.0273 48.9375 40.4208 48.9375 40.9063C48.9375 44.1687 47.6142 47.3748 45.3069 49.7026C44.9652 50.0473 44.9677 50.6038 45.3124 50.9456C45.4838 51.1155 45.7075 51.2003 45.9312 51.2003C46.1574 51.2002 46.3836 51.1133 46.5555 50.9399C49.1864 48.2856 50.6953 44.6285 50.6953 40.9063C50.6953 40.4208 50.3017 40.0273 49.8164 40.0273Z" fill="white"/>
<path d="M43.8297 52.0881C43.5911 51.6653 43.0551 51.516 42.6323 51.7544L42.6123 51.7657C42.1895 52.0043 42.0401 52.5403 42.2786 52.9631C42.4401 53.2494 42.738 53.4104 43.0449 53.4104C43.1911 53.4104 43.3395 53.3737 43.4759 53.2968L43.4959 53.2855C43.9188 53.0469 44.0681 52.5109 43.8297 52.0881Z" fill="white"/>
</svg>
