<svg width="80" height="80" viewBox="0 0 80 80" fill="none" xmlns="http://www.w3.org/2000/svg">
<rect width="80" height="80" rx="15" fill="#FCCC43"/>
<path d="M40.5 25C32.2157 25 25.5 31.7157 25.5 40C25.5 48.2843 32.2157 55 40.5 55C48.7843 55 55.5 48.2843 55.5 40C55.4905 31.7196 48.7804 25.0095 40.5 25ZM40.5 53.5C33.0442 53.5 27 47.4558 27 40C27 32.5442 33.0442 26.5 40.5 26.5C47.9558 26.5 54 32.5442 54 40C53.9913 47.4523 47.9523 53.4913 40.5 53.5Z" fill="white"/>
<path d="M61.8623 22.1425C61.1743 21.8558 60.3813 22.0135 59.8553 22.5415C58.0211 24.3663 56.993 26.8489 57 29.4362V39.25C57.004 40.2001 57.6043 41.0453 58.5 41.362V55.75C58.5 56.9927 59.5074 58 60.75 58C61.9927 58 63 56.9927 63 55.75V23.8442C63.0015 23.0986 62.5519 22.4261 61.8623 22.1425ZM61.5 55.75C61.5 56.1642 61.1642 56.5 60.75 56.5C60.3358 56.5 60 56.1642 60 55.75V41.5H61.5V55.75ZM61.5 40H59.25C58.8358 40 58.5 39.6642 58.5 39.25V29.4362C58.4944 27.2471 59.3645 25.1466 60.9165 23.6027C60.977 23.5381 61.0613 23.5009 61.1498 23.5C61.1978 23.5006 61.2451 23.5105 61.2893 23.5292C61.4199 23.5786 61.5045 23.7055 61.5 23.845V40Z" fill="white"/>
<path d="M34.5 34.75C32.8432 34.75 31.5 36.0932 31.5 37.75C31.5 39.4068 32.8432 40.75 34.5 40.75C36.1568 40.75 37.5 39.4068 37.5 37.75C37.5 36.0932 36.1568 34.75 34.5 34.75ZM34.5 39.25C33.6715 39.25 33 38.5785 33 37.75C33 36.9215 33.6715 36.25 34.5 36.25C35.3285 36.25 36 36.9215 36 37.75C36 38.5785 35.3285 39.25 34.5 39.25Z" fill="white"/>
<path d="M40.5645 35.254L39.246 33.9355C39.0878 33.7781 38.9992 33.5639 39 33.3407C38.9983 32.0487 37.9513 31.0017 36.6593 31H33.6593C33.0387 31.0016 32.444 31.2479 32.004 31.6855L29.1855 34.504C28.7451 34.942 28.4982 35.5381 28.5 36.1592V39.3407C28.4982 39.9619 28.7451 40.558 29.1855 40.996L30.504 42.3145C30.6623 42.4719 30.7509 42.6861 30.75 42.9093C30.7517 44.2013 31.7987 45.2483 33.0908 45.25H34.5908C35.2113 45.2484 35.806 45.002 36.246 44.5645L38.3145 42.496C38.4728 42.3391 38.6864 42.2507 38.9093 42.25C40.2013 42.2483 41.2483 41.2013 41.25 39.9092V36.9092C41.2518 36.2881 41.0049 35.692 40.5645 35.254ZM39.75 39.9092C39.7496 40.3734 39.3734 40.7496 38.9093 40.75C38.2887 40.7516 37.694 40.9979 37.254 41.4355L35.1855 43.504C35.0273 43.6609 34.8136 43.7493 34.5908 43.75H33.0908C32.6266 43.7496 32.2504 43.3734 32.25 42.9093C32.2518 42.2881 32.0049 41.692 31.5645 41.254L30.246 39.9355C30.0878 39.7781 29.9992 39.5639 30 39.3407V36.1592C29.9993 35.9361 30.0878 35.7219 30.246 35.5645L33.0645 32.746C33.2228 32.5891 33.4364 32.5007 33.6593 32.5H36.6593C37.1234 32.5004 37.4996 32.8766 37.5 33.3407C37.4982 33.9619 37.7451 34.558 38.1855 34.996L39.504 36.3145C39.6623 36.4719 39.7509 36.6861 39.75 36.9092V39.9092Z" fill="white"/>
<path d="M47.7802 41.7197L44.7802 38.7198C44.4872 38.4269 44.0124 38.427 43.7195 38.7199C43.579 38.8606 43.4999 39.0513 43.4999 39.25V40.75C43.4999 41.1642 43.1641 41.5 42.7499 41.5C41.5073 41.5 40.4999 42.5073 40.4999 43.75C40.4999 44.1642 40.1641 44.5 39.7499 44.5C38.5073 44.5 37.4999 45.5073 37.4999 46.75C37.4999 47.1642 37.1641 47.5 36.7499 47.5H35.2499C34.8357 47.5001 34.5 47.8359 34.5001 48.2502C34.5001 48.449 34.5792 48.6396 34.7197 48.7802L37.7197 51.7802C37.8603 51.9209 38.051 52 38.2499 52H39.7499C40.9926 52 41.9999 50.9927 41.9999 49.75C41.9999 49.3358 42.3357 49 42.7499 49C43.9926 49 44.9999 47.9927 44.9999 46.75C44.9999 46.3358 45.3357 46 45.7499 46C46.9926 46 47.9999 44.9927 47.9999 43.75V42.25C47.9999 42.0511 47.9208 41.8604 47.7802 41.7197ZM46.4999 43.75C46.4999 44.1642 46.1641 44.5 45.7499 44.5C44.5073 44.5 43.4999 45.5073 43.4999 46.75C43.4999 47.1642 43.1641 47.5 42.7499 47.5C41.5073 47.5 40.4999 48.5073 40.4999 49.75C40.4999 50.1642 40.1641 50.5 39.7499 50.5H38.5604L37.0417 48.9812C38.1621 48.8347 39 47.88 38.9999 46.75C38.9999 46.3358 39.3357 46 39.7499 46C40.9926 46 41.9999 44.9927 41.9999 43.75C41.9999 43.3358 42.3357 43 42.7499 43C43.8799 43.0001 44.8347 42.1622 44.9812 41.0418L46.4999 42.5605V43.75Z" fill="white"/>
<path d="M51.6592 35.848L51.5302 35.7198L47.7802 31.9698L44.6512 28.8415C43.5297 27.7205 41.7117 27.7207 40.5907 28.8423C39.4696 29.9637 39.47 31.7817 40.5914 32.9028L40.7204 33.031L44.4704 36.781L47.5994 39.9093C48.721 41.0303 50.5389 41.0299 51.6599 39.9085C52.781 38.787 52.7807 36.9691 51.6592 35.848ZM41.7434 29.818C41.989 29.6134 42.2983 29.5009 42.6179 29.5H42.6209C42.9843 29.5011 43.3327 29.6453 43.5907 29.9013L45.4394 31.75H41.5679C41.0829 31.168 41.1614 30.3031 41.7434 29.818ZM43.0604 33.25H46.9394L49.1894 35.5H45.3104L43.0604 33.25ZM50.5064 38.932C50.2609 39.1367 49.9515 39.2492 49.6319 39.25H49.6289C49.2654 39.2488 48.917 39.1044 48.6592 38.848L46.8104 37H50.6819C51.167 37.582 51.0884 38.4469 50.5064 38.932Z" fill="white"/>
<path d="M24 22V28H22.5V22H21V28H19.5V22H18V31.75C18.0037 32.924 18.5592 34.028 19.5 34.7305V55.75C19.5 56.9927 20.5073 58 21.75 58C22.9927 58 24 56.9927 24 55.75V34.7305C24.9408 34.028 25.4963 32.924 25.5 31.75V22H24ZM22.5 55.75C22.5 56.1642 22.1642 56.5 21.75 56.5C21.3358 56.5 21 56.1642 21 55.75V35.5H22.5V55.75ZM24 31.75C24 32.9927 22.9927 34 21.75 34C20.5073 34 19.5 32.9927 19.5 31.75V29.5H24V31.75Z" fill="white"/>
</svg>
