<svg width="80" height="80" viewBox="0 0 80 80" fill="none" xmlns="http://www.w3.org/2000/svg">
<rect width="80" height="80" rx="15" fill="#1CB60E"/>
<path d="M52.4531 27.1409H51.0469V25.7346C51.0469 25.4878 50.9168 25.2586 50.7059 25.132L50.2045 24.8311C49.3608 24.3249 48.4636 23.9135 47.5312 23.6042V18.7034C47.5312 18.4439 47.3885 18.2056 47.16 18.0832C46.9322 17.9609 46.6537 17.9749 46.4386 18.1184L36.2616 24.9028L36.142 24.8311C34.0608 23.5824 31.6779 22.9221 29.25 22.9221C26.8221 22.9221 24.4392 23.5824 22.358 24.8311L21.8566 25.132C21.6457 25.2586 21.5156 25.4878 21.5156 25.7346V27.1409H20.1094C18.9464 27.1409 18 28.0873 18 29.2503V55.2659C18 56.4289 18.9464 57.3753 20.1094 57.3753H52.4531C53.6161 57.3753 54.5625 56.4289 54.5625 55.2659V29.2503C54.5625 28.0873 53.6161 27.1409 52.4531 27.1409ZM47.2184 47.4134C47.4138 47.2826 47.5312 47.0632 47.5312 46.8284V25.0948C48.2077 25.3493 48.8602 25.6643 49.4803 26.0363L49.6406 26.1326V52.6362C47.6979 51.5949 45.5238 51.0471 43.3125 51.0471C42.7395 51.0471 42.1685 51.0837 41.6032 51.1568L47.2184 47.4134ZM36.9844 26.1108L46.125 20.0168V46.4515L36.9844 52.5455V26.1108ZM22.9219 26.1326L23.0822 26.0363C24.9441 24.919 27.0773 24.3284 29.25 24.3284C31.4227 24.3284 33.5559 24.919 35.4178 26.037L35.5781 26.1326V52.6362C33.6354 51.5949 31.4613 51.0471 29.25 51.0471C27.0387 51.0471 24.8646 51.5949 22.9219 52.6362V26.1326ZM53.1562 55.2659C53.1562 55.6533 52.8412 55.969 52.4531 55.969H20.1094C19.7213 55.969 19.4062 55.6533 19.4062 55.2659V29.2503C19.4062 28.8628 19.7213 28.5471 20.1094 28.5471H21.5156V53.8596C21.5156 54.1128 21.6513 54.3469 21.8721 54.4714C22.0922 54.5965 22.3629 54.5937 22.5809 54.4622L23.0822 54.1613C24.9441 53.044 27.0773 52.4534 29.25 52.4534C31.4227 52.4534 33.5559 53.044 35.4178 54.162L35.9177 54.4615C35.9212 54.4636 35.9248 54.4657 35.9283 54.4678H35.929C35.9311 54.4714 35.9304 54.4692 35.9311 54.4692C35.9782 54.4967 36.0281 54.5178 36.0787 54.5325H36.0795H36.0802H36.0809C36.0802 54.5325 36.0823 54.5332 36.0823 54.5325H36.083H36.0837C36.1512 54.5522 36.2053 54.5571 36.2904 54.5607H36.2918C36.2918 54.5607 36.2925 54.5607 36.2932 54.5607C36.2939 54.5607 36.2946 54.5607 36.2946 54.5607H36.2953H36.296H36.2967H36.2974C36.3741 54.5592 36.4507 54.5452 36.5231 54.5178H36.5245H36.5252H36.5259H36.5266H36.5273H36.528H36.5287C36.5688 54.503 36.6075 54.484 36.6448 54.4615L37.1447 54.1613C39.0066 53.044 41.1398 52.4534 43.3125 52.4534C45.4852 52.4534 47.6184 53.044 49.4803 54.162L49.9816 54.4629C50.0934 54.5297 50.2186 54.5628 50.3438 54.5628C50.4633 54.5628 50.5828 54.5325 50.6904 54.4714C50.9112 54.3469 51.0469 54.1128 51.0469 53.8596V28.5471H52.4531C52.8412 28.5471 53.1562 28.8628 53.1562 29.2503V55.2659Z" fill="white"/>
<path d="M24.3281 30.6562H34.1719V32.0625H24.3281V30.6562Z" fill="white"/>
<path d="M24.3281 41.9062H34.1719V43.3125H24.3281V41.9062Z" fill="white"/>
<path d="M24.3281 33.4688H34.1719V34.875H24.3281V33.4688Z" fill="white"/>
<path d="M24.3281 36.2812H27.8438V37.6875H24.3281V36.2812Z" fill="white"/>
<path d="M30.6562 36.2812H34.1719V37.6875H30.6562V36.2812Z" fill="white"/>
<path d="M24.3281 39.0938H27.8438V40.5H24.3281V39.0938Z" fill="white"/>
<path d="M30.6562 39.0938H34.1719V40.5H30.6562V39.0938Z" fill="white"/>
<path d="M38.738 28.64L43.6584 25.8283L44.3559 27.049L39.4355 29.8606L38.738 28.64Z" fill="white"/>
<path d="M38.738 32.1549L43.6584 29.3433L44.3559 30.5639L39.4355 33.3755L38.738 32.1549Z" fill="white"/>
<path d="M38.7373 35.6698L43.6576 32.8581L44.3551 34.0788L39.4348 36.8904L38.7373 35.6698Z" fill="white"/>
<path d="M61.5938 20.8125C61.5938 19.2614 60.3323 18 58.7812 18C57.4509 18 56.3407 18.9302 56.0489 20.1727C54.4078 20.468 53.1562 21.9002 53.1562 23.625V25.7344H54.5625V23.625C54.5625 22.7095 55.1524 21.9361 55.9688 21.645V55.2656C55.9688 55.3437 55.9898 55.4154 56.013 55.4857L56.0053 55.4885L57.4116 59.7073C57.5072 59.9941 57.7751 60.1875 58.0781 60.1875V61.5938H59.4844V60.1875C59.7874 60.1875 60.0553 59.9941 60.1509 59.7066L61.5572 55.4878L61.5495 55.485C61.5727 55.4154 61.5938 55.3437 61.5938 55.2656V20.8125ZM57.375 20.8125C57.375 20.037 58.0057 19.4062 58.7812 19.4062C59.5568 19.4062 60.1875 20.037 60.1875 20.8125V54.5625H57.375V20.8125ZM57.6471 55.9688H59.9154L58.9774 58.7812H58.5844L57.6471 55.9688Z" fill="white"/>
</svg>
