<svg width="80" height="80" viewBox="0 0 80 80" fill="none" xmlns="http://www.w3.org/2000/svg">
<rect width="80" height="80" rx="15" fill="#FF027E"/>
<path d="M55.3096 26.5414C54.8244 26.5414 54.4307 26.9351 54.4307 27.4203C54.4307 27.9054 54.8244 28.2992 55.3096 28.2992C55.7947 28.2992 56.1885 27.9054 56.1885 27.4203C56.1885 26.935 55.7947 26.5414 55.3096 26.5414Z" fill="white"/>
<path d="M59.8762 25.6559C57.7787 23.2984 54.8693 22.0001 51.6841 22.0001C48.2011 22.0001 45.0228 23.3502 42.493 25.9045C41.6133 26.7926 40.9558 27.6799 40.5 28.3841C40.0442 27.68 39.3867 26.7928 38.507 25.9045C35.9772 23.3501 32.799 22 29.3159 22C22.6489 22 18 27.5776 18 34.209C18 43.1666 27.4925 50.7089 39.9244 61.4828C40.0896 61.626 40.2948 61.6976 40.5 61.6976C40.7052 61.6976 40.9104 61.626 41.0756 61.4828C53.5371 50.6832 63 43.1541 63 34.209C63 30.9575 61.8906 27.92 59.8762 25.6559ZM40.5 59.656C28.7605 49.4973 19.7578 42.201 19.7578 34.209C19.7578 28.2509 23.8669 23.7579 29.3159 23.7579C32.3415 23.7579 34.999 24.8817 37.2147 27.0978C38.9028 28.7862 39.6904 30.5093 39.6981 30.5265C39.8395 30.8418 40.153 31.0443 40.4987 31.045C40.4992 31.045 40.4998 31.045 40.5004 31.045C40.8459 31.045 41.1599 30.8417 41.302 30.5265C41.3097 30.5093 42.0973 28.7863 43.7854 27.0978C46.001 24.8816 48.6585 23.7579 51.6842 23.7579C57.1332 23.7579 61.2423 28.2509 61.2423 34.209C61.2422 42.3814 51.6454 50.0114 40.5 59.656Z" fill="white"/>
<path d="M58.3836 29.6725C58.1582 29.2425 57.6269 29.0769 57.1971 29.3023C56.7672 29.5277 56.6014 30.0589 56.8269 30.4888C57.407 31.5951 57.7265 32.9163 57.7265 34.209C57.7265 36.7486 56.5178 39.4442 53.9224 42.6919C53.6194 43.0711 53.6812 43.6242 54.0603 43.9272C54.442 44.2322 54.9945 44.1661 55.2956 43.7893C58.1533 40.2132 59.4843 37.1689 59.4843 34.209C59.4843 32.6143 59.1037 31.0456 58.3836 29.6725Z" fill="white"/>
<path d="M48.9375 38.8461H44.0156V33.9242C44.0156 33.4388 43.6221 33.0453 43.1367 33.0453H37.8633C37.3779 33.0453 36.9844 33.4388 36.9844 33.9242V38.8461H32.0625C31.5771 38.8461 31.1836 39.2396 31.1836 39.725V44.9984C31.1836 45.4838 31.5771 45.8773 32.0625 45.8773H36.9844V50.7992C36.9844 51.2846 37.3779 51.6781 37.8633 51.6781H43.1367C43.6221 51.6781 44.0156 51.2846 44.0156 50.7992V45.8773H48.9375C49.4229 45.8773 49.8164 45.4838 49.8164 44.9984V39.725C49.8164 39.2396 49.4229 38.8461 48.9375 38.8461ZM48.0586 44.1194H43.1367C42.6513 44.1194 42.2578 44.5129 42.2578 44.9983V49.9202H38.7422V44.9983C38.7422 44.5129 38.3487 44.1194 37.8633 44.1194H32.9414V40.6038H37.8633C38.3487 40.6038 38.7422 40.2103 38.7422 39.7249V34.803H42.2578V39.7249C42.2578 40.2103 42.6513 40.6038 43.1367 40.6038H48.0586V44.1194Z" fill="white"/>
</svg>
