<svg width="80" height="80" viewBox="0 0 80 80" fill="none" xmlns="http://www.w3.org/2000/svg">
<rect width="80" height="80" rx="15" fill="#DA57F8"/>
<path d="M46.731 21.8323C46.2566 18.5075 43.3626 16 39.9997 16C37.8369 16 35.7829 17.0437 34.5058 18.7928C34.2449 19.1495 34.323 19.6499 34.6797 19.9107C35.0352 20.1706 35.5368 20.0935 35.7972 19.7363C36.7747 18.3988 38.3455 17.6 39.9994 17.6C42.5714 17.6 44.7841 19.5167 45.1469 22.058C45.2041 22.4571 45.5465 22.7452 45.9381 22.7452C45.9754 22.7452 46.0138 22.7424 46.052 22.7372C46.4894 22.6746 46.7934 22.2694 46.731 21.8323Z" fill="white"/>
<path d="M58.2853 30.7879L55.8854 26.7879C55.741 26.5467 55.4806 26.3995 55.1994 26.3995H52.8995C52.4579 26.3995 52.0996 26.7579 52.0996 27.1994C52.0996 27.641 52.4579 27.9993 52.8995 27.9993H54.7466L56.1865 30.3993H23.8127L25.2526 27.9993H26.0999C26.5414 27.9993 26.8998 27.641 26.8998 27.1994C26.8998 26.7579 26.5414 26.3995 26.0999 26.3995H24.7998C24.5186 26.3995 24.2582 26.5467 24.1138 26.7879L21.7139 30.7879C21.5655 31.0354 21.562 31.3431 21.7038 31.5939C21.8456 31.8446 22.1114 31.9998 22.3999 31.9998H57.5993C57.8878 31.9998 58.1534 31.8446 58.2954 31.5939C58.4374 31.3431 58.4337 31.0349 58.2853 30.7879Z" fill="white"/>
<path d="M54.2976 23.4115C54.1856 23.2308 54.0068 23.1026 53.8 23.0543L42.8945 20.5037C42.6881 20.4551 42.4706 20.4912 42.2901 20.6028C42.1101 20.7148 41.9817 20.8937 41.9334 21.1004L41.111 24.6159C41.0102 25.046 41.2774 25.4763 41.7077 25.5766C42.1378 25.6774 42.5685 25.4102 42.6688 24.9799L43.3091 22.2436L52.6566 24.4301L51.1877 30.71C51.087 31.1401 51.3542 31.5704 51.7845 31.6707C51.8461 31.685 51.9073 31.6918 51.9677 31.6918C52.331 31.6918 52.6598 31.4429 52.7454 31.0742L54.3965 24.0155C54.4453 23.809 54.4096 23.5915 54.2976 23.4115Z" fill="white"/>
<path d="M40.4227 25.3027L39.6939 19.1375C39.669 18.9268 39.5614 18.7344 39.3946 18.6032C39.2277 18.4719 39.017 18.4119 38.8054 18.4368L25.4251 20.0183C24.9866 20.0703 24.673 20.4678 24.7248 20.9068L25.94 31.1894C25.9883 31.5965 26.3336 31.8957 26.7336 31.8957C26.7648 31.8957 26.7969 31.8936 26.8288 31.8901C27.2671 31.8381 27.5806 31.4406 27.5291 31.0016L26.4076 21.5129L38.199 20.1193L38.8337 25.4899C38.8857 25.9287 39.2814 26.2404 39.7222 26.1907C40.1607 26.1391 40.4743 25.7414 40.4227 25.3027Z" fill="white"/>
<path d="M46.7495 30.8957L45.1617 24.2925C45.112 24.0865 44.9824 23.9081 44.8017 23.7973C44.621 23.6874 44.4042 23.6529 44.1968 23.7021L31.3094 26.8015C30.8798 26.9046 30.6155 27.3368 30.7186 27.7664L31.5122 31.0668C31.6153 31.4968 32.0475 31.7614 32.4768 31.6576C32.9064 31.5545 33.1708 31.1223 33.0677 30.6927L32.4609 28.1699L43.7927 25.4451L45.1936 31.2702C45.2814 31.637 45.6096 31.8831 45.9707 31.8831C46.0328 31.8831 46.0956 31.8758 46.1587 31.8606C46.5883 31.7572 46.8527 31.3253 46.7495 30.8957Z" fill="white"/>
<path d="M58.3989 31.1589C58.3769 30.7337 58.0258 30.4 57.5997 30.4H22.4003C21.9742 30.4 21.6231 30.7335 21.6011 31.1589L20.0011 62.3583C19.9898 62.5772 20.069 62.7914 20.22 62.9503C20.3711 63.109 20.5807 63.1992 20.8 63.1992H59.1993C59.4185 63.1992 59.6282 63.1092 59.7801 62.9503C59.9308 62.7914 60.01 62.5774 59.999 62.3583L58.3989 31.1589ZM21.6419 61.5992L23.1599 31.9998H56.8392L58.3572 61.5992H21.6419Z" fill="white"/>
<path d="M45.9996 33.5996C44.6761 33.5996 43.5996 34.6761 43.5996 35.9996C43.5996 37.3231 44.6761 38.3995 45.9996 38.3995C47.3231 38.3995 48.3995 37.3231 48.3995 35.9996C48.3995 34.6761 47.3231 33.5996 45.9996 33.5996ZM45.9996 36.7997C45.5582 36.7997 45.1997 36.4409 45.1997 35.9998C45.1997 35.5587 45.5585 35.1999 45.9996 35.1999C46.4407 35.1999 46.7995 35.5587 46.7995 35.9998C46.7995 36.4409 46.4407 36.7997 45.9996 36.7997Z" fill="white"/>
<path d="M33.9998 33.5996C32.6763 33.5996 31.5999 34.6761 31.5999 35.9996C31.5999 37.3231 32.6763 38.3995 33.9998 38.3995C35.3233 38.3995 36.3998 37.3231 36.3998 35.9996C36.3998 34.6761 35.3233 33.5996 33.9998 33.5996ZM33.9998 36.7997C33.5587 36.7997 33.1999 36.4409 33.1999 35.9998C33.1999 35.5587 33.5587 35.1999 33.9998 35.1999C34.4409 35.1999 34.7997 35.5587 34.7997 35.9998C34.7997 36.4409 34.4409 36.7997 33.9998 36.7997Z" fill="white"/>
<path d="M45.9995 35.9996H45.9379C45.4963 35.9996 45.138 36.3579 45.138 36.7995C45.138 36.9087 45.1595 37.013 45.1996 37.1079V41.1993C45.1996 44.0664 42.8669 46.3993 39.9996 46.3993C37.1323 46.3993 34.7996 44.0666 34.7996 41.1993V36.7997C34.7996 36.3582 34.4413 35.9998 33.9997 35.9998C33.5582 35.9998 33.1998 36.3582 33.1998 36.7997V41.1996C33.1998 44.949 36.2502 47.9994 39.9996 47.9994C43.7491 47.9994 46.7994 44.949 46.7994 41.1996V36.7997C46.7994 36.3582 46.4411 35.9996 45.9995 35.9996Z" fill="white"/>
</svg>
