<svg width="22" height="22" viewBox="0 0 22 22" fill="none" xmlns="http://www.w3.org/2000/svg">
<path d="M18.7765 3.22065C14.4801 -1.07446 7.51527 -1.07343 3.22016 3.22301C-1.07495 7.51946 -1.07392 14.4843 3.22253 18.7794C7.51897 23.0745 14.4838 23.0734 18.7789 18.777C20.8416 16.7136 22.0002 13.9153 21.9995 10.9976C21.9989 8.0805 20.8396 5.28306 18.7765 3.22065ZM16.6586 15.3229C16.6582 15.3234 16.6577 15.3239 16.6572 15.3243V15.3207L16.0998 15.8743C15.379 16.6042 14.3293 16.9046 13.3315 16.6663C12.3262 16.3973 11.3706 15.969 10.5008 15.3977C9.69276 14.8812 8.9439 14.2775 8.26783 13.5973C7.64577 12.9798 7.08692 12.3018 6.59948 11.5733C6.06632 10.7895 5.64433 9.93563 5.34548 9.036C5.00289 7.97914 5.28679 6.81945 6.07883 6.04034L6.73148 5.38769C6.91294 5.20542 7.20779 5.20477 7.39002 5.38623C7.39049 5.3867 7.39101 5.38718 7.39148 5.38769L9.45213 7.44834C9.6344 7.6298 9.63505 7.92465 9.45359 8.10688C9.45312 8.10736 9.45265 8.10783 9.45213 8.10834L8.24213 9.31834C7.89494 9.66175 7.85129 10.2075 8.13948 10.6017C8.57712 11.2023 9.06142 11.7675 9.58783 12.292C10.1747 12.8815 10.8128 13.4177 11.4945 13.8944C11.8884 14.1691 12.4224 14.1228 12.7631 13.7844L13.9328 12.5964C14.1142 12.4141 14.4091 12.4135 14.5913 12.5949C14.5918 12.5954 14.5923 12.5959 14.5928 12.5964L16.6571 14.6644C16.8394 14.8458 16.8401 15.1406 16.6586 15.3229Z" fill="white"/>
</svg>
