<svg width="293" height="18" viewBox="0 0 293 18" fill="none" xmlns="http://www.w3.org/2000/svg">
<path d="M25.454 14H19.952V13.104L23.886 8.106C24.2593 7.62067 24.446 7.13067 24.446 6.636C24.446 6.09467 24.292 5.66067 23.984 5.334C23.676 5.00733 23.2513 4.844 22.71 4.844C22.206 4.844 21.7907 4.99333 21.464 5.292C21.1373 5.59067 20.974 6.04333 20.974 6.65H19.966C19.966 5.85667 20.218 5.208 20.722 4.704C21.226 4.2 21.8887 3.948 22.71 3.948C23.5313 3.948 24.194 4.19533 24.698 4.69C25.202 5.17533 25.454 5.824 25.454 6.636C25.454 7.01867 25.3933 7.35933 25.272 7.658C25.1507 7.95667 24.9453 8.288 24.656 8.652L21.17 13.104H25.454V14ZM32.6985 11.34C32.6985 12.152 32.4371 12.8147 31.9145 13.328C31.4011 13.832 30.7525 14.084 29.9685 14.084C29.1751 14.084 28.5218 13.832 28.0085 13.328C27.4951 12.824 27.2385 12.1613 27.2385 11.34V6.692C27.2385 5.87067 27.4951 5.208 28.0085 4.704C28.5218 4.2 29.1751 3.948 29.9685 3.948C30.7525 3.948 31.4011 4.20467 31.9145 4.718C32.4371 5.222 32.6985 5.88 32.6985 6.692V11.34ZM31.6905 11.284V6.748C31.6905 6.188 31.5365 5.73067 31.2285 5.376C30.9298 5.02133 30.5098 4.844 29.9685 4.844C29.4271 4.844 29.0025 5.02133 28.6945 5.376C28.3958 5.73067 28.2465 6.188 28.2465 6.748V11.284C28.2465 11.844 28.3958 12.3013 28.6945 12.656C29.0025 13.0107 29.4271 13.188 29.9685 13.188C30.5098 13.188 30.9298 13.0107 31.2285 12.656C31.5365 12.3013 31.6905 11.844 31.6905 11.284ZM40.0829 14H34.5809V13.104L38.5149 8.106C38.8882 7.62067 39.0749 7.13067 39.0749 6.636C39.0749 6.09467 38.9209 5.66067 38.6129 5.334C38.3049 5.00733 37.8802 4.844 37.3389 4.844C36.8349 4.844 36.4196 4.99333 36.0929 5.292C35.7662 5.59067 35.6029 6.04333 35.6029 6.65H34.5949C34.5949 5.85667 34.8469 5.208 35.3509 4.704C35.8549 4.2 36.5176 3.948 37.3389 3.948C38.1602 3.948 38.8229 4.19533 39.3269 4.69C39.8309 5.17533 40.0829 5.824 40.0829 6.636C40.0829 7.01867 40.0222 7.35933 39.9009 7.658C39.7796 7.95667 39.5742 8.288 39.2849 8.652L35.7989 13.104H40.0829V14ZM47.3274 11.34C47.3274 12.152 47.066 12.8147 46.5434 13.328C46.03 13.832 45.3814 14.084 44.5974 14.084C43.804 14.084 43.1507 13.832 42.6374 13.328C42.124 12.824 41.8674 12.1613 41.8674 11.34V6.692C41.8674 5.87067 42.124 5.208 42.6374 4.704C43.1507 4.2 43.804 3.948 44.5974 3.948C45.3814 3.948 46.03 4.20467 46.5434 4.718C47.066 5.222 47.3274 5.88 47.3274 6.692V11.34ZM46.3194 11.284V6.748C46.3194 6.188 46.1654 5.73067 45.8574 5.376C45.5587 5.02133 45.1387 4.844 44.5974 4.844C44.056 4.844 43.6314 5.02133 43.3234 5.376C43.0247 5.73067 42.8754 6.188 42.8754 6.748V11.284C42.8754 11.844 43.0247 12.3013 43.3234 12.656C43.6314 13.0107 44.056 13.188 44.5974 13.188C45.1387 13.188 45.5587 13.0107 45.8574 12.656C46.1654 12.3013 46.3194 11.844 46.3194 11.284ZM60.5501 14H59.5421L54.2501 6.006V14H53.1861V4.032H54.1941L59.4861 11.998V4.032H60.5501V14ZM68.536 10.822H63.888C63.888 11.5873 64.0607 12.1753 64.406 12.586C64.7514 12.9967 65.2554 13.202 65.918 13.202C66.31 13.202 66.6367 13.1413 66.898 13.02C67.1687 12.8987 67.444 12.698 67.724 12.418L68.41 13.02C68.0367 13.3933 67.6634 13.664 67.29 13.832C66.9167 14 66.45 14.084 65.89 14.084C64.938 14.084 64.196 13.7947 63.664 13.216C63.1414 12.628 62.88 11.7413 62.88 10.556C62.88 9.44533 63.132 8.582 63.636 7.966C64.14 7.34067 64.8307 7.028 65.708 7.028C66.5947 7.028 67.2854 7.32667 67.78 7.924C68.284 8.512 68.536 9.32867 68.536 10.374V10.822ZM67.542 10.066C67.5047 9.534 67.43 9.15133 67.318 8.918C66.9914 8.22733 66.4547 7.882 65.708 7.882C64.9614 7.882 64.4247 8.22733 64.098 8.918C63.986 9.16067 63.916 9.54333 63.888 10.066H67.542ZM73.3279 14H72.6139C72.0445 14 71.6059 13.8273 71.2979 13.482C70.9992 13.1367 70.8499 12.6933 70.8499 12.152V7.882H69.9819V7.112H70.8499V4.998H71.8579V7.112H73.3279V7.882H71.8579V12.124C71.8579 12.796 72.1705 13.132 72.7959 13.132H73.3279V14ZM80.204 13.062C79.8493 13.4447 79.504 13.7107 79.168 13.86C78.832 14.0093 78.4213 14.084 77.936 14.084C77.0306 14.084 76.2933 13.7807 75.724 13.174C75.164 12.5673 74.884 11.6947 74.884 10.556C74.884 9.41733 75.164 8.54467 75.724 7.938C76.2933 7.33133 77.0306 7.028 77.936 7.028C78.4213 7.028 78.832 7.10267 79.168 7.252C79.504 7.40133 79.8493 7.66733 80.204 8.05L79.518 8.694C79.2566 8.40467 79.0093 8.204 78.776 8.092C78.5426 7.98 78.2626 7.924 77.936 7.924C77.236 7.924 76.704 8.18533 76.34 8.708C76.0413 9.128 75.892 9.744 75.892 10.556C75.892 11.368 76.0413 11.984 76.34 12.404C76.704 12.9267 77.236 13.188 77.936 13.188C78.2626 13.188 78.5426 13.132 78.776 13.02C79.0093 12.8987 79.2566 12.6933 79.518 12.404L80.204 13.062ZM87.1842 10.556C87.1842 11.816 86.9042 12.7307 86.3442 13.3C85.8402 13.8227 85.1822 14.084 84.3702 14.084C83.5582 14.084 82.9002 13.8227 82.3962 13.3C81.8362 12.7307 81.5562 11.816 81.5562 10.556C81.5562 9.28667 81.8362 8.372 82.3962 7.812C82.9002 7.28933 83.5582 7.028 84.3702 7.028C85.1822 7.028 85.8402 7.28933 86.3442 7.812C86.9042 8.372 87.1842 9.28667 87.1842 10.556ZM86.1762 10.556C86.1762 9.50133 85.9942 8.792 85.6302 8.428C85.2942 8.092 84.8742 7.924 84.3702 7.924C83.8755 7.924 83.4602 8.092 83.1242 8.428C82.7508 8.80133 82.5642 9.51067 82.5642 10.556C82.5642 11.6013 82.7508 12.3107 83.1242 12.684C83.4602 13.02 83.8755 13.188 84.3702 13.188C84.8742 13.188 85.2942 13.02 85.6302 12.684C85.9942 12.3107 86.1762 11.6013 86.1762 10.556ZM98.8223 4.984H95.9383V14H94.8743V4.984H91.9903V4.032H98.8223V4.984ZM104.657 10.822H100.009C100.009 11.5873 100.182 12.1753 100.527 12.586C100.872 12.9967 101.376 13.202 102.039 13.202C102.431 13.202 102.758 13.1413 103.019 13.02C103.29 12.8987 103.565 12.698 103.845 12.418L104.531 13.02C104.158 13.3933 103.784 13.664 103.411 13.832C103.038 14 102.571 14.084 102.011 14.084C101.059 14.084 100.317 13.7947 99.7851 13.216C99.2625 12.628 99.0011 11.7413 99.0011 10.556C99.0011 9.44533 99.2531 8.582 99.7571 7.966C100.261 7.34067 100.952 7.028 101.829 7.028C102.716 7.028 103.406 7.32667 103.901 7.924C104.405 8.512 104.657 9.32867 104.657 10.374V10.822ZM103.663 10.066C103.626 9.534 103.551 9.15133 103.439 8.918C103.112 8.22733 102.576 7.882 101.829 7.882C101.082 7.882 100.546 8.22733 100.219 8.918C100.107 9.16067 100.037 9.54333 100.009 10.066H103.663ZM109.253 14H108.525C107.946 14 107.508 13.832 107.209 13.496C106.92 13.16 106.775 12.7167 106.775 12.166V4.032H107.783V12.124C107.783 12.4693 107.853 12.726 107.993 12.894C108.133 13.0527 108.371 13.132 108.707 13.132H109.253V14ZM116.059 10.822H111.411C111.411 11.5873 111.584 12.1753 111.929 12.586C112.275 12.9967 112.779 13.202 113.441 13.202C113.833 13.202 114.16 13.1413 114.421 13.02C114.692 12.8987 114.967 12.698 115.247 12.418L115.933 13.02C115.56 13.3933 115.187 13.664 114.813 13.832C114.44 14 113.973 14.084 113.413 14.084C112.461 14.084 111.719 13.7947 111.187 13.216C110.665 12.628 110.403 11.7413 110.403 10.556C110.403 9.44533 110.655 8.582 111.159 7.966C111.663 7.34067 112.354 7.028 113.231 7.028C114.118 7.028 114.809 7.32667 115.303 7.924C115.807 8.512 116.059 9.32867 116.059 10.374V10.822ZM115.065 10.066C115.028 9.534 114.953 9.15133 114.841 8.918C114.515 8.22733 113.978 7.882 113.231 7.882C112.485 7.882 111.948 8.22733 111.621 8.918C111.509 9.16067 111.439 9.54333 111.411 10.066H115.065ZM123.147 13.062C122.793 13.4447 122.447 13.7107 122.111 13.86C121.775 14.0093 121.365 14.084 120.879 14.084C119.974 14.084 119.237 13.7807 118.667 13.174C118.107 12.5673 117.827 11.6947 117.827 10.556C117.827 9.41733 118.107 8.54467 118.667 7.938C119.237 7.33133 119.974 7.028 120.879 7.028C121.365 7.028 121.775 7.10267 122.111 7.252C122.447 7.40133 122.793 7.66733 123.147 8.05L122.461 8.694C122.2 8.40467 121.953 8.204 121.719 8.092C121.486 7.98 121.206 7.924 120.879 7.924C120.179 7.924 119.647 8.18533 119.283 8.708C118.985 9.128 118.835 9.744 118.835 10.556C118.835 11.368 118.985 11.984 119.283 12.404C119.647 12.9267 120.179 13.188 120.879 13.188C121.206 13.188 121.486 13.132 121.719 13.02C121.953 12.8987 122.2 12.6933 122.461 12.404L123.147 13.062ZM130.128 10.556C130.128 11.816 129.848 12.7307 129.288 13.3C128.784 13.8227 128.126 14.084 127.314 14.084C126.502 14.084 125.844 13.8227 125.34 13.3C124.78 12.7307 124.5 11.816 124.5 10.556C124.5 9.28667 124.78 8.372 125.34 7.812C125.844 7.28933 126.502 7.028 127.314 7.028C128.126 7.028 128.784 7.28933 129.288 7.812C129.848 8.372 130.128 9.28667 130.128 10.556ZM129.12 10.556C129.12 9.50133 128.938 8.792 128.574 8.428C128.238 8.092 127.818 7.924 127.314 7.924C126.819 7.924 126.404 8.092 126.068 8.428C125.694 8.80133 125.508 9.51067 125.508 10.556C125.508 11.6013 125.694 12.3107 126.068 12.684C126.404 13.02 126.819 13.188 127.314 13.188C127.818 13.188 128.238 13.02 128.574 12.684C128.938 12.3107 129.12 11.6013 129.12 10.556ZM142.143 14H141.135V9.758C141.135 9.16067 140.986 8.708 140.687 8.4C140.389 8.08267 139.973 7.924 139.441 7.924C138.928 7.924 138.513 8.078 138.195 8.386C137.878 8.694 137.719 9.114 137.719 9.646V14H136.711V9.758C136.711 9.16067 136.562 8.708 136.263 8.4C135.965 8.08267 135.549 7.924 135.017 7.924C134.485 7.924 134.065 8.08267 133.757 8.4C133.449 8.71733 133.295 9.17 133.295 9.758V14H132.287V7.112H133.295V7.868C133.781 7.308 134.429 7.028 135.241 7.028C136.221 7.028 136.926 7.41067 137.355 8.176C137.897 7.41067 138.653 7.028 139.623 7.028C140.361 7.028 140.953 7.24267 141.401 7.672C141.896 8.148 142.143 8.78733 142.143 9.59V14ZM145.88 14H144.564V12.684H145.88V14ZM158.88 11.27C158.88 12.1193 158.614 12.7867 158.082 13.272C157.559 13.7573 156.836 14 155.912 14H152.034V4.032H155.786C156.663 4.032 157.372 4.27467 157.914 4.76C158.455 5.236 158.726 5.866 158.726 6.65C158.726 7.36867 158.483 7.95667 157.998 8.414C157.839 8.57267 157.592 8.72667 157.256 8.876C157.648 9.044 157.942 9.226 158.138 9.422C158.632 9.898 158.88 10.514 158.88 11.27ZM157.144 7.98C157.489 7.672 157.662 7.24733 157.662 6.706C157.662 6.16467 157.489 5.74467 157.144 5.446C156.798 5.138 156.318 4.984 155.702 4.984H153.098V8.442H155.702C156.318 8.442 156.798 8.288 157.144 7.98ZM157.27 12.558C157.634 12.222 157.816 11.774 157.816 11.214C157.816 10.654 157.634 10.2107 157.27 9.884C156.915 9.55733 156.43 9.394 155.814 9.394H153.098V13.048H155.814C156.43 13.048 156.915 12.8847 157.27 12.558ZM166.145 13.062C165.763 13.4633 165.408 13.734 165.081 13.874C164.745 14.014 164.358 14.084 163.919 14.084C162.958 14.084 162.202 13.7713 161.651 13.146C161.101 12.5207 160.825 11.6573 160.825 10.556C160.825 9.45467 161.101 8.59133 161.651 7.966C162.202 7.34067 162.958 7.028 163.919 7.028C164.358 7.028 164.745 7.098 165.081 7.238C165.408 7.378 165.763 7.64867 166.145 8.05L165.459 8.694C165.151 8.37667 164.89 8.17133 164.675 8.078C164.442 7.97533 164.185 7.924 163.905 7.924C162.524 7.924 161.833 8.80133 161.833 10.556C161.833 12.3107 162.519 13.188 163.891 13.188C164.181 13.188 164.433 13.1413 164.647 13.048C164.871 12.9453 165.142 12.7307 165.459 12.404L166.145 13.062ZM173.14 10.822H168.492C168.492 11.5873 168.664 12.1753 169.01 12.586C169.355 12.9967 169.859 13.202 170.522 13.202C170.914 13.202 171.24 13.1413 171.502 13.02C171.772 12.8987 172.048 12.698 172.328 12.418L173.014 13.02C172.64 13.3933 172.267 13.664 171.894 13.832C171.52 14 171.054 14.084 170.494 14.084C169.542 14.084 168.8 13.7947 168.268 13.216C167.745 12.628 167.484 11.7413 167.484 10.556C167.484 9.44533 167.736 8.582 168.24 7.966C168.744 7.34067 169.434 7.028 170.312 7.028C171.198 7.028 171.889 7.32667 172.384 7.924C172.888 8.512 173.14 9.32867 173.14 10.374V10.822ZM172.146 10.066C172.108 9.534 172.034 9.15133 171.922 8.918C171.595 8.22733 171.058 7.882 170.312 7.882C169.565 7.882 169.028 8.22733 168.702 8.918C168.59 9.16067 168.52 9.54333 168.492 10.066H172.146ZM184.106 14H183.098V7.98H179.766V14H178.772V7.112H184.106V14ZM192.025 10.556C192.025 11.9373 191.745 12.9127 191.185 13.482C190.784 13.8833 190.224 14.084 189.505 14.084C188.684 14.084 188.035 13.7853 187.559 13.188V17.08H186.551V7.112H187.559V7.924C188.035 7.32667 188.684 7.028 189.505 7.028C190.224 7.028 190.784 7.22867 191.185 7.63C191.745 8.19 192.025 9.16533 192.025 10.556ZM190.947 11.55C190.994 11.27 191.017 10.9387 191.017 10.556C191.017 10.1733 190.994 9.842 190.947 9.562C190.91 9.282 190.835 9.01133 190.723 8.75C190.611 8.47933 190.434 8.274 190.191 8.134C189.948 7.994 189.65 7.924 189.295 7.924C189.006 7.924 188.754 7.97533 188.539 8.078C188.324 8.17133 188.152 8.29733 188.021 8.456C187.9 8.61467 187.802 8.81533 187.727 9.058C187.662 9.30067 187.615 9.53867 187.587 9.772C187.568 9.996 187.559 10.2573 187.559 10.556C187.559 10.8547 187.568 11.1207 187.587 11.354C187.615 11.578 187.662 11.8113 187.727 12.054C187.802 12.2967 187.9 12.4973 188.021 12.656C188.152 12.8147 188.324 12.9453 188.539 13.048C188.754 13.1413 189.006 13.188 189.295 13.188C189.65 13.188 189.948 13.118 190.191 12.978C190.434 12.838 190.611 12.6373 190.723 12.376C190.835 12.1053 190.91 11.83 190.947 11.55ZM199.094 14H198.086V13.342C197.815 13.6127 197.531 13.804 197.232 13.916C196.933 14.028 196.555 14.084 196.098 14.084C195.23 14.084 194.581 13.874 194.152 13.454C193.807 13.118 193.634 12.6513 193.634 12.054C193.634 11.438 193.839 10.9527 194.25 10.598C194.67 10.2433 195.263 10.066 196.028 10.066H198.086V9.408C198.086 8.89467 197.946 8.51667 197.666 8.274C197.395 8.022 196.947 7.896 196.322 7.896C195.893 7.896 195.547 7.95667 195.286 8.078C195.034 8.19933 194.801 8.40467 194.586 8.694L193.9 8.064C194.189 7.672 194.521 7.40133 194.894 7.252C195.267 7.10267 195.748 7.028 196.336 7.028C198.175 7.028 199.094 7.79333 199.094 9.324V14ZM198.086 11.564V10.822H196.168C195.132 10.822 194.614 11.228 194.614 12.04C194.614 12.824 195.146 13.216 196.21 13.216C196.891 13.216 197.4 13.062 197.736 12.754C197.969 12.53 198.086 12.1333 198.086 11.564ZM206.897 12.096C206.897 12.684 206.715 13.1507 206.351 13.496C205.987 13.832 205.483 14 204.839 14H201.563V7.112H204.755C205.362 7.112 205.852 7.28 206.225 7.616C206.598 7.94267 206.785 8.37667 206.785 8.918C206.785 9.66467 206.421 10.1687 205.693 10.43C206.496 10.7287 206.897 11.284 206.897 12.096ZM205.791 9.002C205.791 8.32067 205.385 7.98 204.573 7.98H202.557V10.038H204.573C205.385 10.038 205.791 9.69267 205.791 9.002ZM205.567 12.824C205.791 12.6187 205.903 12.3433 205.903 11.998C205.903 11.6527 205.791 11.3773 205.567 11.172C205.352 10.9667 205.049 10.864 204.657 10.864H202.557V13.132H204.657C205.049 13.132 205.352 13.0293 205.567 12.824ZM214.01 14H213.002V13.342C212.731 13.6127 212.447 13.804 212.148 13.916C211.849 14.028 211.471 14.084 211.014 14.084C210.146 14.084 209.497 13.874 209.068 13.454C208.723 13.118 208.55 12.6513 208.55 12.054C208.55 11.438 208.755 10.9527 209.166 10.598C209.586 10.2433 210.179 10.066 210.944 10.066H213.002V9.408C213.002 8.89467 212.862 8.51667 212.582 8.274C212.311 8.022 211.863 7.896 211.238 7.896C210.809 7.896 210.463 7.95667 210.202 8.078C209.95 8.19933 209.717 8.40467 209.502 8.694L208.816 8.064C209.105 7.672 209.437 7.40133 209.81 7.252C210.183 7.10267 210.664 7.028 211.252 7.028C213.091 7.028 214.01 7.79333 214.01 9.324V14ZM213.002 11.564V10.822H211.084C210.048 10.822 209.53 11.228 209.53 12.04C209.53 12.824 210.062 13.216 211.126 13.216C211.807 13.216 212.316 13.062 212.652 12.754C212.885 12.53 213.002 12.1333 213.002 11.564ZM224.501 12.054C224.501 12.6607 224.245 13.1507 223.731 13.524C223.227 13.888 222.616 14.07 221.897 14.07C220.777 14.07 219.858 13.7433 219.139 13.09L219.769 12.432C220.077 12.712 220.381 12.9127 220.679 13.034C220.987 13.146 221.356 13.202 221.785 13.202C222.233 13.202 222.635 13.0947 222.989 12.88C223.344 12.656 223.521 12.3667 223.521 12.012C223.521 11.6387 223.391 11.354 223.129 11.158C222.877 10.962 222.537 10.864 222.107 10.864H221.099V10.024H222.121C222.504 10.024 222.812 9.926 223.045 9.73C223.288 9.534 223.409 9.26333 223.409 8.918C223.409 8.57267 223.269 8.31133 222.989 8.134C222.719 7.95667 222.341 7.868 221.855 7.868C221.174 7.868 220.558 8.05933 220.007 8.442L219.433 7.77C220.115 7.27533 220.955 7.028 221.953 7.028C222.663 7.028 223.246 7.196 223.703 7.532C224.161 7.85867 224.389 8.31133 224.389 8.89C224.389 9.23533 224.291 9.548 224.095 9.828C223.909 10.108 223.643 10.3087 223.297 10.43C223.661 10.542 223.951 10.7427 224.165 11.032C224.389 11.3213 224.501 11.662 224.501 12.054ZM231.619 14H230.611V13.342C230.341 13.6127 230.056 13.804 229.757 13.916C229.459 14.028 229.081 14.084 228.623 14.084C227.755 14.084 227.107 13.874 226.677 13.454C226.332 13.118 226.159 12.6513 226.159 12.054C226.159 11.438 226.365 10.9527 226.775 10.598C227.195 10.2433 227.788 10.066 228.553 10.066H230.611V9.408C230.611 8.89467 230.471 8.51667 230.191 8.274C229.921 8.022 229.473 7.896 228.847 7.896C228.418 7.896 228.073 7.95667 227.811 8.078C227.559 8.19933 227.326 8.40467 227.111 8.694L226.425 8.064C226.715 7.672 227.046 7.40133 227.419 7.252C227.793 7.10267 228.273 7.028 228.861 7.028C230.7 7.028 231.619 7.79333 231.619 9.324V14ZM230.611 11.564V10.822H228.693C227.657 10.822 227.139 11.228 227.139 12.04C227.139 12.824 227.671 13.216 228.735 13.216C229.417 13.216 229.925 13.062 230.261 12.754C230.495 12.53 230.611 12.1333 230.611 11.564ZM243.79 16.058H242.81V14H234.088V7.112H235.082V13.132H237.91V7.112H238.918V13.132H241.746V7.112H242.754V13.132H243.79V16.058ZM251.062 14H250.054V8.666L246.512 14H245.518V7.112H246.512V12.418L250.054 7.112H251.062V14ZM263.3 16.058H262.32V14H253.598V7.112H254.592V13.132H257.42V7.112H258.428V13.132H261.256V7.112H262.264V13.132H263.3V16.058ZM270.224 10.822H265.576C265.576 11.5873 265.748 12.1753 266.094 12.586C266.439 12.9967 266.943 13.202 267.606 13.202C267.998 13.202 268.324 13.1413 268.586 13.02C268.856 12.8987 269.132 12.698 269.412 12.418L270.098 13.02C269.724 13.3933 269.351 13.664 268.978 13.832C268.604 14 268.138 14.084 267.578 14.084C266.626 14.084 265.884 13.7947 265.352 13.216C264.829 12.628 264.568 11.7413 264.568 10.556C264.568 9.44533 264.82 8.582 265.324 7.966C265.828 7.34067 266.518 7.028 267.396 7.028C268.282 7.028 268.973 7.32667 269.468 7.924C269.972 8.512 270.224 9.32867 270.224 10.374V10.822ZM269.23 10.066C269.192 9.534 269.118 9.15133 269.006 8.918C268.679 8.22733 268.142 7.882 267.396 7.882C266.649 7.882 266.112 8.22733 265.786 8.918C265.674 9.16067 265.604 9.54333 265.576 10.066H269.23ZM277.703 14H276.695V10.878H273.363V14H272.369V7.112H273.363V10.01H276.695V7.112H277.703V14ZM287.595 14H286.587V7.112H287.595V14ZM284.879 10.416C285.28 10.7987 285.481 11.3027 285.481 11.928C285.481 12.5533 285.28 13.0573 284.879 13.44C284.478 13.8133 283.95 14 283.297 14H280.231V7.112H281.225V9.842H283.297C283.96 9.842 284.487 10.0333 284.879 10.416ZM284.137 12.824C284.361 12.6093 284.473 12.3107 284.473 11.928C284.473 11.5453 284.361 11.2513 284.137 11.046C283.922 10.8313 283.605 10.724 283.185 10.724H281.225V13.132H283.185C283.605 13.132 283.922 13.0293 284.137 12.824ZM291.554 14H290.238V12.684H291.554V14Z" fill="white"/>
<path d="M5.65601 8.20534C5.69451 7.97784 5.76451 7.77484 5.86601 7.59634C5.96751 7.41784 6.10751 7.27434 6.27901 7.16584C6.44351 7.06434 6.65001 7.00834 6.90551 7.00484C7.07351 7.00834 7.22751 7.03634 7.36051 7.09584C7.50401 7.15884 7.62301 7.24284 7.72451 7.34784C7.82601 7.45284 7.90301 7.57884 7.95901 7.71884C8.01501 7.85884 8.04651 8.00934 8.05351 8.16684H9.30651C9.29601 7.83784 9.22951 7.53684 9.11401 7.26384C8.99851 6.99084 8.83051 6.75634 8.62051 6.55684C8.41051 6.35734 8.15851 6.20684 7.86451 6.09834C7.57051 5.98984 7.24501 5.93384 6.88801 5.93384C6.43301 5.93384 6.03751 6.01084 5.70151 6.16834C5.36551 6.32584 5.08551 6.53934 4.86151 6.81234C4.63751 7.08534 4.46951 7.40034 4.36101 7.76084C4.25251 8.12134 4.20001 8.50284 4.20001 8.90534V9.09785C4.20001 9.50385 4.25601 9.88535 4.36451 10.2458C4.47301 10.6063 4.64101 10.9213 4.86501 11.1908C5.08901 11.4603 5.36901 11.6739 5.70851 11.8314C6.04801 11.9889 6.44351 12.0659 6.89851 12.0659C7.22751 12.0659 7.53551 12.0134 7.82251 11.9049C8.10951 11.7964 8.36151 11.6494 8.57851 11.4604C8.79551 11.2713 8.97051 11.0543 9.09651 10.8023C9.22251 10.5503 9.29601 10.2843 9.30651 9.99735H8.05351C8.04651 10.1443 8.01151 10.2773 7.94851 10.4033C7.88551 10.5293 7.80151 10.6343 7.69651 10.7218C7.59151 10.8093 7.46901 10.8793 7.32901 10.9283C7.19601 10.9738 7.05601 10.9983 6.90551 10.9983C6.65351 10.9913 6.44701 10.9388 6.27901 10.8338C6.10401 10.7218 5.96401 10.5783 5.86251 10.3998C5.76101 10.2213 5.69101 10.0183 5.65251 9.78735C5.61401 9.55635 5.60001 9.33235 5.60001 9.09785V8.90534C5.60001 8.66734 5.61751 8.43284 5.65601 8.20534Z" fill="white"/>
<path d="M7 2C3.1325 2 0 5.1325 0 9C0 12.8675 3.1325 16 7 16C10.8675 16 14 12.8675 14 9C14 5.1325 10.8675 2 7 2ZM7 14.6C3.913 14.6 1.4 12.087 1.4 9C1.4 5.913 3.913 3.4 7 3.4C10.087 3.4 12.6 5.913 12.6 9C12.6 12.087 10.087 14.6 7 14.6Z" fill="white"/>
</svg>
