<svg width="26" height="26" viewBox="0 0 26 26" fill="none" xmlns="http://www.w3.org/2000/svg">
<path d="M15.4883 13C15.4883 14.3743 14.3743 15.4883 13 15.4883C11.6257 15.4883 10.5117 14.3743 10.5117 13C10.5117 11.6257 11.6257 10.5117 13 10.5117C14.3743 10.5117 15.4883 11.6257 15.4883 13Z" fill="white"/>
<path d="M18.8193 8.59761C18.6997 8.27348 18.5088 7.9801 18.2609 7.73929C18.0201 7.49133 17.7269 7.30051 17.4026 7.18089C17.1395 7.07874 16.7444 6.95714 16.0166 6.92401C15.2293 6.88811 14.9932 6.88037 13.0001 6.88037C11.0067 6.88037 10.7706 6.88791 9.98354 6.92381C9.25574 6.95714 8.8604 7.07874 8.59756 7.18089C8.27324 7.30051 7.97986 7.49133 7.73924 7.73929C7.49129 7.9801 7.30046 8.27328 7.18065 8.59761C7.07849 8.86064 6.95689 9.25598 6.92377 9.98378C6.88786 10.7709 6.88013 11.0069 6.88013 13.0003C6.88013 14.9935 6.88786 15.2295 6.92377 16.0168C6.95689 16.7446 7.07849 17.1398 7.18065 17.4028C7.30046 17.7271 7.49109 18.0203 7.73904 18.2611C7.97986 18.5091 8.27304 18.6999 8.59737 18.8195C8.8604 18.9219 9.25574 19.0435 9.98354 19.0766C10.7706 19.1125 11.0065 19.12 12.9999 19.12C14.9934 19.12 15.2295 19.1125 16.0164 19.0766C16.7442 19.0435 17.1395 18.9219 17.4026 18.8195C18.0536 18.5684 18.5681 18.0538 18.8193 17.4028C18.9214 17.1398 19.043 16.7446 19.0764 16.0168C19.1123 15.2295 19.1198 14.9935 19.1198 13.0003C19.1198 11.0069 19.1123 10.7709 19.0764 9.98378C19.0432 9.25598 18.9216 8.86064 18.8193 8.59761ZM13.0001 16.8333C10.8829 16.8333 9.16667 15.1172 9.16667 13.0001C9.16667 10.883 10.8829 9.16692 13.0001 9.16692C15.117 9.16692 16.8333 10.883 16.8333 13.0001C16.8333 15.1172 15.117 16.8333 13.0001 16.8333ZM16.9848 9.91118C16.4901 9.91118 16.089 9.51009 16.089 9.01537C16.089 8.52065 16.4901 8.11955 16.9848 8.11955C17.4795 8.11955 17.8806 8.52065 17.8806 9.01537C17.8804 9.51009 17.4795 9.91118 16.9848 9.91118Z" fill="white"/>
<path d="M13 0C5.8214 0 0 5.8214 0 13C0 20.1786 5.8214 26 13 26C20.1786 26 26 20.1786 26 13C26 5.8214 20.1786 0 13 0ZM20.4198 16.0776C20.3837 16.8723 20.2574 17.4148 20.0729 17.8897C19.6851 18.8924 18.8924 19.6851 17.8897 20.0729C17.415 20.2574 16.8723 20.3835 16.0778 20.4198C15.2818 20.4561 15.0275 20.4648 13.0002 20.4648C10.9727 20.4648 10.7186 20.4561 9.92238 20.4198C9.12793 20.3835 8.58521 20.2574 8.11052 20.0729C7.61223 19.8854 7.16115 19.5916 6.78822 19.2118C6.40855 18.8391 6.11478 18.3878 5.92732 17.8897C5.74284 17.415 5.61649 16.8723 5.58038 16.0778C5.54369 15.2816 5.53516 15.0273 5.53516 13C5.53516 10.9727 5.54369 10.7184 5.58018 9.92238C5.61629 9.12773 5.74245 8.58521 5.92693 8.11032C6.11438 7.61223 6.40836 7.16095 6.78822 6.78822C7.16095 6.40836 7.61223 6.11458 8.11032 5.92712C8.58521 5.74265 9.12773 5.61649 9.92238 5.58018C10.7184 5.54388 10.9727 5.53516 13 5.53516C15.0273 5.53516 15.2816 5.54388 16.0776 5.58038C16.8723 5.61649 17.4148 5.74265 17.8897 5.92693C18.3878 6.11438 18.8391 6.40836 19.212 6.78822C19.5916 7.16115 19.8856 7.61223 20.0729 8.11032C20.2576 8.58521 20.3837 9.12773 20.42 9.92238C20.4563 10.7184 20.4648 10.9727 20.4648 13C20.4648 15.0273 20.4563 15.2816 20.4198 16.0776Z" fill="white"/>
</svg>
