<svg width="119" height="42" viewBox="0 0 119 42" fill="none" xmlns="http://www.w3.org/2000/svg">
<path d="M30.7988 1.68005C22.1241 -2.26262 12.5908 1.24405 6.9188 6.91738C1.24414 12.5907 -2.26386 22.1227 1.68147 30.7947C7.13347 42.7774 23.5801 44.7281 34.1561 34.1521C44.7321 23.5787 42.7815 7.13205 30.7975 1.68005H30.7988ZM24.5228 24.5201C19.2828 29.7601 11.4761 29.4467 8.13347 24.3427C5.26814 19.9681 6.7628 14.0987 10.4321 10.4307C14.1015 6.76138 19.9695 5.26672 24.3455 8.13205C29.4495 11.4734 29.7628 19.2814 24.5228 24.5201Z" fill="#B53478"/>
<path d="M27.6295 4.84804C21.1548 1.30804 13.3215 3.76804 8.54547 8.5427C3.76814 13.3187 1.30947 21.152 4.84947 27.6267C9.34814 35.8587 21.2028 36.7534 28.9801 28.976C36.7575 21.2 35.8615 9.3467 27.6295 4.84804ZM24.5228 24.52C19.2828 29.76 11.4761 29.4467 8.13347 24.3427C5.26814 19.968 6.7628 14.0987 10.4321 10.4307C14.1015 6.76137 19.9695 5.2667 24.3455 8.13204C29.4495 11.4734 29.7628 19.2814 24.5228 24.52Z" fill="#ED297C"/>
<path d="M38.0228 15.4361C35.0535 13.5734 31.2615 14.0494 29.2068 16.1028C28.4855 16.8143 27.9981 17.7287 27.8095 18.7241C27.2668 20.7388 26.1535 22.7268 24.4415 24.4388C19.2508 29.6294 11.5175 29.3268 8.1988 24.2774C5.34947 19.9428 6.8268 14.1161 10.4721 10.4708C11.663 9.28154 13.0693 8.32992 14.6161 7.66676C15.2215 7.40809 15.8188 7.01343 16.3401 6.48943C17.9215 4.90809 18.0735 2.91609 16.7601 2.09343C15.7881 1.48276 14.2868 1.69743 13.0055 2.50409C10.76 3.65075 8.70662 5.13966 6.9188 6.91743C1.24414 12.5908 -2.26386 22.1228 1.68147 30.7948C7.13347 42.7774 23.5801 44.7281 34.1561 34.1521C37.8775 30.4321 40.0468 25.9828 40.7748 21.5428C41.3801 19.3361 40.3161 16.8761 38.0228 15.4361Z" fill="url(#paint0_radial_65_5)"/>
<path d="M29.7188 23.7374C28.0921 22.2974 27.4935 20.4267 27.8095 18.724C27.2668 20.7387 26.1535 22.7267 24.4415 24.4387C19.2508 29.6294 11.5175 29.3267 8.19881 24.2774C5.34947 19.9427 6.82681 14.116 10.4721 10.4707C11.663 9.28148 13.0694 8.32987 14.6161 7.66671C13.3895 8.19204 12.1268 8.15737 11.3681 7.48404C11.1052 7.2515 10.9153 6.94767 10.8215 6.60938C10.0068 7.19604 9.24281 7.84537 8.54414 8.54271C3.76947 13.3187 1.31081 21.152 4.85081 27.6267C9.34947 35.8587 21.2041 36.7534 28.9815 28.976C30.1475 27.8151 31.1586 26.5083 31.9895 25.088C31.1575 24.7805 30.3888 24.3231 29.7215 23.7387L29.7188 23.7374Z" fill="url(#paint1_radial_65_5)"/>
<path d="M29.7188 23.7374C28.0921 22.2974 27.4935 20.4267 27.8095 18.724C27.2668 20.7387 26.1535 22.7267 24.4415 24.4387C19.2508 29.6294 11.5175 29.3267 8.19881 24.2774C5.34947 19.9427 6.82681 14.116 10.4721 10.4707C11.663 9.28148 13.0694 8.32987 14.6161 7.66671C13.3895 8.19204 12.1268 8.15737 11.3681 7.48404C11.1052 7.2515 10.9153 6.94767 10.8215 6.60938C10.0068 7.19604 9.24281 7.84537 8.54414 8.54271C3.76947 13.3187 1.31081 21.152 4.85081 27.6267C9.34947 35.8587 21.2041 36.7534 28.9815 28.976C30.1475 27.8151 31.1586 26.5083 31.9895 25.088C31.1575 24.7805 30.3888 24.3231 29.7215 23.7387L29.7188 23.7374Z" fill="url(#paint2_radial_65_5)"/>
<path d="M30.7988 1.68005C22.1241 -2.26262 12.5908 1.24405 6.9188 6.91738C1.24414 12.5907 -2.26386 22.1227 1.68147 30.7947C1.89347 31.26 2.1228 31.708 2.3668 32.1427C5.26746 30.5739 8.06715 28.8251 10.7495 26.9067C9.70119 26.2522 8.80805 25.3773 8.13214 24.3427C5.26814 19.9667 6.7628 14.0987 10.4321 10.4307C14.1015 6.76138 19.9695 5.26672 24.3455 8.13205C25.2682 8.7343 26.0651 9.50999 26.6921 10.416C28.4675 7.7201 30.0673 4.9125 31.4815 2.01072C31.2558 1.89572 31.0278 1.78547 30.7975 1.68005H30.7988Z" fill="#FEFEFE" fill-opacity="0.122"/>
<path d="M47.5815 22.5735H51.4681V14.8002L57.5215 22.5735H60.9615V8.40283H57.0761V15.8935L51.2455 8.40283H47.5815V22.5735ZM63.4721 22.5735H74.9708V19.2335H67.3588V16.9868H74.1601V13.8895H67.3601V11.7428H74.8695V8.40417H63.4721V22.5748V22.5735ZM80.4361 22.5735H84.3628V11.8442H88.6148V8.40417H76.1855V11.8442H80.4361V22.5735Z" fill="#ED297C"/>
<path d="M96.5495 22.8573C97.5895 22.8506 98.5001 22.7106 99.2748 22.4386C100.012 22.1835 100.697 21.7998 101.3 21.3053C101.876 20.8253 102.387 20.2786 102.825 19.6586L99.8695 17.5519C99.5895 17.8999 99.2961 18.2013 98.9921 18.4573C98.6855 18.7133 98.3441 18.9159 97.9655 19.0573C97.5921 19.2 97.1601 19.2706 96.6721 19.2733C96.2002 19.2762 95.7334 19.1761 95.3041 18.9799C94.8958 18.7897 94.5316 18.5163 94.2348 18.1773C93.9288 17.8253 93.693 17.418 93.5401 16.9773C93.3726 16.4987 93.2883 15.995 93.2908 15.4879C93.2935 14.9586 93.3748 14.4666 93.5401 14.0079C93.7015 13.5519 93.9348 13.1506 94.2348 12.8066C94.5388 12.4626 94.8935 12.1919 95.3041 11.9959C95.7161 11.8039 96.1708 11.7066 96.6708 11.7026C97.3428 11.7066 97.9335 11.8546 98.4348 12.1426C98.9375 12.432 99.3895 12.8293 99.7881 13.3426L102.663 11.1159C102.251 10.5334 101.761 10.0111 101.205 9.56395C100.623 9.10207 99.9657 8.74476 99.2615 8.50795C98.5228 8.25462 97.6735 8.12262 96.7108 8.11995C95.888 8.11632 95.0696 8.24138 94.2855 8.49062C93.5295 8.73328 92.8455 9.07728 92.2281 9.52395C91.6108 9.96928 91.0815 10.4973 90.6348 11.1093C90.1869 11.7263 89.8395 12.4103 89.6055 13.1359C89.3626 13.8963 89.2398 14.6898 89.2415 15.4879C89.2455 16.3453 89.3695 17.1479 89.6135 17.8933C89.9586 18.9749 90.5585 19.9578 91.3628 20.7593C92.167 21.5607 93.152 22.1572 94.2348 22.4986C94.9831 22.7375 95.764 22.8586 96.5495 22.8573ZM111.225 22.8573C112.066 22.8596 112.901 22.7333 113.703 22.4826C114.454 22.2437 115.163 21.8907 115.807 21.4359C117.068 20.5472 118.013 19.2789 118.503 17.8159C118.752 17.0651 118.878 16.279 118.877 15.4879C118.88 14.6918 118.755 13.9004 118.507 13.1439C118.268 12.4169 117.914 11.733 117.457 11.1186C117.003 10.5074 116.456 9.97149 115.835 9.53062C115.194 9.07593 114.486 8.72497 113.736 8.49062C112.937 8.2428 112.104 8.11782 111.267 8.11995C110.428 8.11701 109.594 8.24292 108.793 8.49328C108.041 8.73198 107.329 9.085 106.684 9.53995C106.059 9.98335 105.507 10.5219 105.048 11.1359C104.115 12.3947 103.612 13.9209 103.615 15.4879C103.614 16.2844 103.739 17.076 103.985 17.8333C104.232 18.5719 104.579 19.2466 105.035 19.8573C105.487 20.4679 106.029 20.9973 106.657 21.4466C107.284 21.8946 107.987 22.2399 108.756 22.4866C109.556 22.7345 110.388 22.8595 111.225 22.8573ZM111.265 19.3146C110.759 19.3176 110.257 19.2116 109.795 19.004C109.361 18.806 108.972 18.521 108.652 18.1666C108.328 17.8119 108.075 17.3988 107.905 16.9493C107.732 16.4816 107.643 15.9868 107.643 15.4879C107.642 14.9844 107.728 14.4844 107.899 14.0106C108.072 13.5519 108.315 13.1439 108.632 12.7919C108.947 12.4405 109.331 12.1589 109.761 11.9653C110.223 11.7618 110.722 11.6587 111.225 11.6626C111.768 11.6653 112.265 11.7693 112.711 11.9733C113.156 12.1746 113.537 12.4546 113.86 12.8093C114.18 13.1639 114.431 13.5693 114.607 14.0266C114.779 14.4866 114.869 14.9733 114.869 15.4879C114.869 16.0146 114.781 16.5066 114.613 16.9666C114.448 17.4152 114.199 17.8283 113.88 18.1839C113.563 18.5359 113.176 18.8175 112.744 19.0106C112.301 19.2106 111.809 19.3106 111.267 19.3146H111.265Z" fill="#F47A35"/>
<path d="M51.4681 15.8988V14.8002L52.3908 15.9855C55.2441 16.2482 58.1015 16.4708 60.9615 16.6562V8.40283H57.0761V15.8935L51.2455 8.40283H47.5815V15.5055C48.8748 15.6455 50.1708 15.7762 51.4681 15.8988ZM63.4721 16.8082C64.7681 16.8802 66.0641 16.9455 67.3588 17.0028V16.9868H74.1601V13.8895H67.3601V11.7428H74.8695V8.40417H63.4721V16.8095V16.8082ZM80.4361 17.3108C81.7468 17.3135 83.0561 17.3095 84.3628 17.2975V11.8442H88.6148V8.40417H76.1855V11.8442H80.4361V17.3108Z" fill="#EF5189"/>
<path d="M93.5735 17.0679L93.5401 16.976C93.3728 16.4978 93.2885 15.9945 93.2908 15.488C93.2935 14.9586 93.3748 14.4666 93.5401 14.0079C93.7015 13.5519 93.9348 13.1506 94.2348 12.8066C94.5388 12.4626 94.8935 12.1919 95.3041 11.9959C95.7161 11.8039 96.1708 11.7066 96.6708 11.7026C97.3428 11.7066 97.9335 11.8546 98.4348 12.1426C98.9375 12.432 99.3895 12.8293 99.7881 13.3426L102.663 11.1159C102.251 10.5334 101.761 10.0111 101.205 9.56395C100.623 9.10207 99.9657 8.74476 99.2615 8.50795C98.5228 8.25462 97.6735 8.12262 96.7108 8.11995C95.888 8.11632 95.0696 8.24138 94.2855 8.49062C93.5295 8.73328 92.8455 9.07728 92.2281 9.52395C91.6108 9.96928 91.0815 10.4973 90.6348 11.1093C90.1869 11.7263 89.8395 12.4103 89.6055 13.136C89.3626 13.8963 89.2398 14.6898 89.2415 15.488C89.2441 16.088 89.3055 16.66 89.4255 17.2053C90.8121 17.168 92.1935 17.1226 93.5735 17.0679ZM103.68 16.4946C105.02 16.3955 106.36 16.2871 107.699 16.1693C107.581 15.4444 107.65 14.7016 107.899 14.0106C108.072 13.552 108.315 13.1439 108.632 12.7919C108.947 12.4405 109.331 12.1589 109.761 11.9653C110.223 11.7618 110.722 11.6587 111.225 11.6626C111.768 11.6653 112.265 11.7693 112.711 11.9733C113.156 12.1746 113.537 12.4546 113.86 12.8093C114.18 13.164 114.431 13.5693 114.607 14.0266C114.773 14.4746 114.864 14.9466 114.869 15.4466C116.204 15.2946 117.535 15.1333 118.859 14.9626C118.82 14.3439 118.701 13.7327 118.507 13.1439C118.268 12.4169 117.914 11.733 117.457 11.1186C117.003 10.5074 116.456 9.97149 115.835 9.53062C115.194 9.07593 114.486 8.72497 113.736 8.49062C112.937 8.2428 112.104 8.11782 111.267 8.11995C110.428 8.11701 109.594 8.24292 108.793 8.49328C108.041 8.73198 107.329 9.085 106.684 9.53995C106.059 9.98335 105.507 10.5219 105.048 11.136C104.115 12.3947 103.612 13.9209 103.615 15.488C103.615 15.832 103.639 16.168 103.681 16.4946H103.68Z" fill="#F58845"/>
<path d="M47.5815 31.5506H49.4481L50.3415 30.2093H50.7121V31.552H52.3548V26.8986H49.7668C49.0601 26.8986 48.5615 27.0787 48.2441 27.4147C47.9601 27.6813 47.8135 28.06 47.8135 28.524C47.8135 29.2306 48.1321 29.6773 48.6735 29.9346L47.5815 31.552V31.5506ZM50.0668 29.0746C49.6801 29.0746 49.4655 28.9026 49.4655 28.6106C49.4655 28.292 49.6881 28.128 50.0668 28.128H50.7121V29.0746H50.0668ZM53.2321 32.928H54.8668V30.984C55.1681 31.3373 55.5801 31.6546 56.2855 31.6546C57.3868 31.6546 58.3415 30.7346 58.3415 29.2213C58.3415 27.7147 57.3868 26.7947 56.2775 26.7947C55.5801 26.7947 55.1841 27.1307 54.8668 27.5173V26.8986H53.2321V32.928ZM55.7788 30.288C55.2535 30.288 54.8321 29.848 54.8321 29.2293C54.8321 28.6027 55.2535 28.1626 55.7788 28.1626C56.3121 28.1626 56.7335 28.6026 56.7335 29.212C56.7335 29.8573 56.3121 30.288 55.7788 30.288ZM59.0468 31.552H60.6815V30.632L61.1548 30.064L62.0401 31.552H63.8375L62.2041 28.808L63.7948 26.8986H61.9455L60.6815 28.628V26.8973H59.0468V31.5506V31.552ZM64.2335 31.552H65.7401L67.2868 29.2213V31.552H68.8695V26.8986H67.3641L65.8175 29.2293V26.8986H64.2335V31.552ZM69.7468 31.552H71.2535L72.8001 29.2213V31.552H74.3828V26.8986H72.8788L71.3321 29.2293V26.8986H69.7455V31.552H69.7468ZM72.1041 26.52C72.8775 26.52 73.4028 26.056 73.5228 25.2387L72.6708 25.084C72.5681 25.3853 72.4041 25.5827 72.1041 25.5827C71.8028 25.5827 71.6388 25.3853 71.5361 25.084L70.6841 25.2387C70.8041 26.056 71.3295 26.52 72.1041 26.52Z" fill="#F47A35"/>
<path d="M77.6428 31.5507H79.1495L80.6961 29.2213V31.552H82.2788V26.8987H80.7735L79.2268 29.2293V26.8987H77.6428V31.552V31.5507ZM83.1561 31.5507H84.7908V29.8653H86.1321V31.552H87.7668V26.8987H86.1321V28.5493H84.7908V26.8987H83.1561V31.552V31.5507ZM89.6495 31.5507H91.2841V28.2147H92.6441V26.8987H88.2921V28.2147H89.6508V31.552L89.6495 31.5507ZM95.4735 31.664C96.4028 31.664 97.0468 31.2853 97.4948 30.7173L96.5921 29.9693C96.2561 30.296 95.9468 30.4427 95.5601 30.4427C95.0521 30.4427 94.6815 30.184 94.5535 29.6773H97.6668C97.6748 29.5653 97.6748 29.444 97.6748 29.3413C97.6748 27.9733 96.9361 26.7947 95.3281 26.7947C93.9508 26.7947 92.9788 27.8707 92.9788 29.2293C92.9788 30.692 94.0108 31.664 95.4735 31.664ZM94.5268 28.8427C94.6135 28.336 94.9055 28 95.3361 28C95.7828 28 96.0841 28.3267 96.1441 28.8427H94.5268ZM98.3721 32.928H100.007V30.984C100.307 31.3373 100.72 31.6547 101.425 31.6547C102.527 31.6547 103.481 30.7347 103.481 29.2213C103.481 27.7147 102.527 26.7947 101.417 26.7947C100.72 26.7947 100.324 27.1307 100.007 27.5173V26.8987H98.3721V32.928ZM100.919 30.288C100.393 30.288 99.9721 29.848 99.9721 29.2293C99.9721 28.6027 100.393 28.1627 100.919 28.1627C101.452 28.1627 101.873 28.6027 101.873 29.212C101.873 29.8573 101.451 30.288 100.917 30.288H100.919ZM104.185 31.552H105.821V29.8667H107.163V31.552H108.797V26.8987H107.163V28.5493H105.82V26.8987H104.187V31.552H104.185ZM111.98 31.664C112.908 31.664 113.553 31.2853 114 30.7173L113.097 29.9693C112.763 30.296 112.452 30.4427 112.065 30.4427C111.559 30.4427 111.188 30.184 111.059 29.6773H114.172C114.181 29.5653 114.181 29.444 114.181 29.3413C114.181 27.9733 113.441 26.7947 111.833 26.7947C110.457 26.7947 109.485 27.8707 109.485 29.2293C109.485 30.692 110.517 31.664 111.979 31.664H111.98ZM111.033 28.8427C111.119 28.336 111.412 28 111.841 28C112.289 28 112.589 28.3267 112.651 28.8427H111.033ZM115.884 31.552H117.519V28.2147H118.879V26.8987H114.525V28.2147H115.885V31.552H115.884Z" fill="#ED297C"/>
<defs>
<radialGradient id="paint0_radial_65_5" cx="0" cy="0" r="1" gradientUnits="userSpaceOnUse" gradientTransform="translate(18.11 25.3225) scale(119.241 119.243)">
<stop stop-color="#FEC32B"/>
<stop offset="1" stop-color="#F37536"/>
</radialGradient>
<radialGradient id="paint1_radial_65_5" cx="0" cy="0" r="1" gradientUnits="userSpaceOnUse" gradientTransform="translate(16.8863 -23.0405) rotate(-130.605) scale(144.93 138.726)">
<stop stop-color="#FEC32B"/>
<stop offset="0.36863" stop-color="#FEC32B"/>
<stop offset="0.81177" stop-color="#F37536"/>
<stop offset="1" stop-color="#F37536"/>
</radialGradient>
<radialGradient id="paint2_radial_65_5" cx="0" cy="0" r="1" gradientUnits="userSpaceOnUse" gradientTransform="translate(15.7431 -31.7025) rotate(-130.604) scale(133.32 127.612)">
<stop stop-color="#FEC32B"/>
<stop offset="0.36863" stop-color="#FEC32B"/>
<stop offset="0.7098" stop-color="#F37536"/>
<stop offset="1" stop-color="#F37536"/>
</radialGradient>
</defs>
</svg>
